<svg width="116" height="229" viewBox="0 0 116 229" fill="none" xmlns="http://www.w3.org/2000/svg">
<g clip-path="url(#clip0_1302_7480)">
<mask id="mask0_1302_7480" style="mask-type:luminance" maskUnits="userSpaceOnUse" x="-113" y="0" width="229" height="229">
<path d="M0.571838 0.995827C-4.92796 1.49375 -8.97926 6.38246 -8.4587 11.8823L0.798164 111.875L-41.1859 20.6412C-43.4945 15.6167 -49.4243 13.4213 -54.4488 15.7299C-54.7204 15.8657 -54.992 16.0015 -55.2636 16.1599C-60.0392 18.9211 -61.6914 25.032 -58.9301 29.8302L-58.7717 30.1018C-58.6585 30.2828 -58.5454 30.4413 -58.4322 30.6223L-0.401375 112.599L-82.4005 54.568C-86.9044 51.3767 -93.1511 52.4405 -96.3424 56.9671C-96.5234 57.216 -96.6819 57.465 -96.8403 57.7366C-99.6015 62.5121 -97.9719 68.6457 -93.1738 71.4069L-92.9022 71.5653C-92.7211 71.6558 -92.54 71.7464 -92.359 71.8369L-1.12563 113.821L-101.141 104.564C-106.64 104.044 -111.506 108.095 -112.027 113.595C-112.05 113.889 -112.072 114.206 -112.072 114.523C-112.072 120.045 -107.591 124.526 -102.069 124.526H-101.752C-101.548 124.526 -101.344 124.526 -101.141 124.481L-1.12563 115.224L-92.359 157.208C-97.3835 159.517 -99.5789 165.447 -97.2703 170.471C-97.1345 170.743 -96.9987 171.014 -96.8403 171.286C-94.0791 176.062 -87.9682 177.714 -83.17 174.953L-82.8984 174.794C-82.7174 174.681 -82.5589 174.568 -82.4005 174.455L-0.424004 116.424L-58.4548 198.4C-61.6461 202.904 -60.5823 209.151 -56.0784 212.342C-55.8294 212.523 -55.5578 212.682 -55.3089 212.84C-50.5333 215.601 -44.4224 213.972 -41.6386 209.174L-41.4801 208.902C-41.3896 208.721 -41.2991 208.54 -41.2086 208.359L0.775536 117.125L-8.48133 217.14C-8.97926 222.64 -4.9506 227.506 0.549202 228.027C0.866066 228.049 1.1603 228.072 1.47717 228.072C6.9996 228.072 11.4809 223.591 11.4809 218.068V217.751C11.4809 217.548 11.4583 217.344 11.4356 217.14L2.17878 117.125L44.1629 208.359C44.2987 208.63 44.4344 208.902 44.5929 209.174C47.3541 213.949 53.465 215.601 58.2632 212.84C58.5348 212.682 58.7837 212.523 59.0327 212.342C63.5367 209.151 64.6004 202.904 61.4091 198.4L3.37832 116.424L85.3548 174.455C85.6038 174.636 85.8527 174.794 86.1243 174.953C90.8999 177.714 97.0334 176.084 99.7946 171.286C99.953 171.014 100.089 170.743 100.225 170.471C102.533 165.447 100.338 159.517 95.3133 157.208L4.07994 115.224L104.095 124.481C104.412 124.504 104.706 124.526 105.023 124.526C110.545 124.526 115.027 120.045 115.027 114.523C115.027 114.206 115.027 113.912 114.981 113.595C114.483 108.095 109.595 104.044 104.095 104.564L4.07994 113.821L95.3133 71.8369C95.5849 71.7011 95.8565 71.5653 96.1281 71.4069C100.904 68.6457 102.556 62.5348 99.7946 57.7366C99.6362 57.465 99.4778 57.216 99.2967 56.9671C96.1055 52.4631 89.8587 51.3994 85.3548 54.568L3.37832 112.599L61.4091 30.6223C61.5902 30.3734 61.7486 30.1018 61.9071 29.8528C64.6683 25.0773 63.0387 18.9437 58.2406 16.1825C57.969 16.0241 57.6974 15.8883 57.4258 15.7525C52.4013 13.4439 46.4714 15.6393 44.1629 20.6638L2.17878 111.897L11.4356 11.8823C11.4583 11.588 11.4809 11.2712 11.4809 10.9543C11.4809 5.43188 6.9996 0.950562 1.47717 0.950562C1.1603 0.950562 0.866066 0.950562 0.549202 0.995827" fill="white"/>
</mask>
<g mask="url(#mask0_1302_7480)">
<path d="M116 0H-113V229H116V0Z" fill="#FCD9DF"/>
</g>
</g>
<defs>
<clipPath id="clip0_1302_7480">
<rect width="229" height="229" fill="white" transform="translate(-113)"/>
</clipPath>
</defs>
</svg>
