<svg width="180" height="180" viewBox="0 0 180 180" fill="none" xmlns="http://www.w3.org/2000/svg">
<rect width="180" height="180" rx="90" fill="#F4F1E6"/>
<path d="M90.0032 0C75.1033 0 61.0518 3.61855 48.6757 10.0301C19.7617 25.0002 0 55.1949 0 89.9967C0 114.556 9.83919 136.824 25.7979 153.062C27.2825 154.579 28.8243 156.044 30.4182 157.445C46.2921 171.479 67.1565 180 90.0032 180C97.0575 180 103.928 179.184 110.517 177.647C116.266 176.31 121.797 174.417 127.062 172.034C132.331 169.65 137.335 166.776 142.005 163.462C146.735 160.11 151.125 156.312 155.114 152.132C155.802 151.411 156.478 150.678 157.142 149.939C159.397 147.415 161.506 144.764 163.469 141.999C164.19 140.979 164.891 139.947 165.573 138.901C174.698 124.817 180 108.024 180 89.9967C180 54.1801 159.078 23.248 128.789 8.76247C117.043 3.14052 103.89 0 90.0032 0ZM90.0032 2.92517C96.5991 2.92517 103.176 3.66424 109.55 5.12274C115.738 6.54373 121.792 8.65317 127.526 11.4005C142.139 18.3912 154.509 29.3007 163.297 42.964C172.314 56.9846 177.075 73.2484 177.075 89.9967C177.075 106.859 172.251 123.224 163.119 137.309C162.462 138.315 161.78 139.322 161.087 140.304C159.193 142.973 157.135 145.554 154.956 147.988C154.318 148.702 153.662 149.415 152.998 150.11C149.143 154.152 144.874 157.842 140.31 161.079C135.773 164.291 130.91 167.082 125.857 169.37C120.72 171.696 115.336 173.525 109.855 174.799C103.386 176.31 96.7084 177.075 90.0032 177.075C79.1884 177.075 68.6411 175.111 58.6486 171.256C48.9937 167.528 40.1498 162.142 32.3548 155.259C30.8196 153.902 29.3153 152.474 27.8812 151.016C20.0487 143.036 13.9064 133.79 9.61737 123.523C5.17496 112.901 2.92512 101.614 2.92512 89.9967C2.92512 73.7329 7.44425 57.8639 15.9832 44.119C24.2872 30.7412 36.0581 19.8497 50.02 12.6241C56.0677 9.48846 62.4859 7.07232 69.0948 5.44741C75.8947 3.77192 82.9293 2.92517 90.0032 2.92517Z" fill="#313131"/>
<path d="M148.191 78.9257L144.738 88.4222L141.582 97.1211L140.83 99.1735L140.015 101.435L140.01 101.454L163.366 101.461L164.194 99.1799L170.516 81.7692L171.549 78.9322L148.191 78.9257ZM150.237 81.8508L167.374 81.8574L161.44 98.1848L161.313 98.5356L144.183 98.529L144.33 98.1212L147.49 89.4223L150.237 81.8508Z" fill="#313131"/>
<path d="M162.851 102.915L125.27 102.902V96.9109L165.011 96.9239L162.851 102.915Z" fill="#313131"/>
<path d="M157.429 91.6397C157.212 92.6544 156.365 93.3298 155.543 93.1569C154.714 92.9791 154.223 92.0165 154.44 90.9969C154.657 89.9838 155.499 89.3084 156.328 89.4797C157.155 89.6591 157.646 90.62 157.429 91.6397Z" fill="#313131"/>
<path d="M48.7904 89.3327C48.4919 89.3327 48.1917 89.2446 47.9307 89.0587L31.7631 77.358L15.6787 89.0521C15.0277 89.5302 14.1109 89.3849 13.6394 88.734C13.1614 88.0782 13.3067 87.1662 13.9576 86.6882L30.9033 74.3692C31.4123 74.0005 32.1074 74.0005 32.6164 74.3692L49.6454 86.6882C50.3012 87.1597 50.448 88.0782 49.9766 88.7275C49.6894 89.1223 49.2439 89.3327 48.7904 89.3327Z" fill="#313131"/>
<path d="M28.4868 106.656H18.9591C18.1499 106.656 17.4941 106.005 17.4941 105.196V89.7475C17.4941 88.9448 18.1499 88.2889 18.9591 88.2889C19.7618 88.2889 20.4193 88.9448 20.4193 89.7475V103.731H27.0217V96.1966C27.0217 93.4574 29.252 91.2207 31.9977 91.2207C34.7385 91.2207 36.9752 93.4574 36.9752 96.1966V103.731H43.6738V89.7475C43.6738 88.9448 44.3232 88.2889 45.1324 88.2889C45.9416 88.2889 46.599 88.9448 46.599 89.7475V105.196C46.599 106.005 45.9416 106.656 45.1324 106.656H35.5101C34.7009 106.656 34.0499 106.005 34.0499 105.196V96.1966C34.0499 95.0627 33.1266 94.1458 31.9977 94.1458C30.8638 94.1458 29.947 95.0627 29.947 96.1966V105.196C29.947 106.005 29.2895 106.656 28.4868 106.656Z" fill="#313131"/>
<path d="M115.585 106.469C113.87 104.908 111.653 104.246 110.767 101.811C108.504 97.2745 109.428 88.7665 109.199 83.9031C109.263 81.0938 110.269 77.5373 112.576 75.759C113.475 75.0134 114.916 74.369 115.686 73.3755C117.012 71.6543 115.635 68.9151 113.449 68.9722L99.2002 68.9787C96.9178 68.9086 95.5555 71.7881 97.0271 73.5092C98.3714 75.0265 100.404 75.5616 101.487 77.3007C103.176 79.4868 103.718 85.3127 99.825 85.4465C96.5294 85.0435 94.5669 82.1379 91.7755 79.6141L84.8044 72.6364C81.9804 69.2332 79.6294 69.0423 75.5639 68.9852L68.8521 68.9722C68.8456 68.9787 67.113 68.9657 66.4376 68.9852C65.5958 69.0293 64.8763 69.4567 64.3983 70.075C63.098 71.6429 64.098 73.8225 65.8127 74.5925C67.8454 75.8291 69.3367 77.3399 70.0382 79.6712C71.3695 82.4952 70.6059 91.7863 70.7446 94.8909C70.5668 99.7966 69.26 103.831 64.5827 106.311C62.9268 107.923 64.2074 111.072 66.4882 111.019H80.8465C82.2545 111.019 83.5237 109.732 83.5237 108.228C83.3247 105.195 79.5658 105.118 78.2149 102.728C77.4939 101.811 77.2264 100.665 77.2264 99.6514C77.2264 98.6366 77.1431 93.9413 77.4058 92.1109C77.6668 90.2886 79.0617 89.5691 80.2787 89.5936C81.5023 89.6262 82.1141 90.2446 83.695 91.5514C88.4751 95.5402 93.6434 101.174 98.5247 105.406C102.266 108.681 105.63 111.013 110.296 111.013L113.418 111.019C115.712 111.083 117.056 108.197 115.585 106.469Z" fill="#313131"/>
<path d="M89.7145 29.9646C88.2054 29.9646 86.9818 31.1947 86.9818 32.6989C86.9818 34.208 88.2054 35.4316 89.7145 35.4316C91.2187 35.4316 92.4486 34.208 92.4486 32.6989C92.4486 31.1947 91.2187 29.9646 89.7145 29.9646ZM89.7145 38.3567C86.5919 38.3567 84.0566 35.8215 84.0566 32.6989C84.0566 29.5812 86.5919 27.0394 89.7145 27.0394C92.8371 27.0394 95.374 29.5812 95.374 32.6989C95.374 35.8215 92.8371 38.3567 89.7145 38.3567Z" fill="#313131"/>
<path d="M80.4688 18.5446C78.0608 18.5446 76.1048 20.5007 76.1048 22.9152C76.1048 25.3248 78.0608 27.2875 80.4688 27.2875C82.885 27.2875 84.8411 25.3248 84.8411 22.9152C84.8411 20.5007 82.885 18.5446 80.4688 18.5446ZM80.4688 30.2061C76.4489 30.2061 73.1797 26.9367 73.1797 22.9152C73.1797 18.8888 76.4489 15.6194 80.4688 15.6194C84.4968 15.6194 87.7663 18.8888 87.7663 22.9152C87.7663 26.9367 84.4968 30.2061 80.4688 30.2061Z" fill="#313131"/>
<path d="M99.5049 18.5446C97.0969 18.5446 95.1341 20.5007 95.1341 22.9152C95.1341 25.3248 97.0969 27.2875 99.5049 27.2875C101.921 27.2875 103.877 25.3248 103.877 22.9152C103.877 20.5007 101.921 18.5446 99.5049 18.5446ZM99.5049 30.2061C95.485 30.2061 92.209 26.9367 92.209 22.9152C92.209 18.8888 95.485 15.6194 99.5049 15.6194C103.533 15.6194 106.802 18.8888 106.802 22.9152C106.802 26.9367 103.533 30.2061 99.5049 30.2061Z" fill="#313131"/>
<path d="M109.935 42.9901C109.846 42.9901 109.751 42.9771 109.654 42.964C108.858 42.8058 108.348 42.0341 108.501 41.2445C108.615 40.6637 108.672 40.0649 108.672 39.4727C108.672 34.4316 104.569 30.3269 99.5348 30.3269C97.6994 30.3269 95.9341 30.8685 94.4234 31.8882C93.7545 32.3417 92.8426 32.1623 92.3907 31.4934C91.9388 30.8245 92.1165 29.919 92.7854 29.4671C94.7807 28.1163 97.1138 27.4017 99.5348 27.4017C106.188 27.4017 111.598 32.8197 111.598 39.4727C111.598 40.2558 111.522 41.0471 111.369 41.8106C111.235 42.5056 110.624 42.9901 109.935 42.9901Z" fill="#313131"/>
<path d="M70.0817 43.0733C69.4259 43.0733 68.8272 42.6263 68.6608 41.9574C68.4438 41.0406 68.4062 40.4483 68.4062 39.4662C68.4062 32.8197 73.816 27.4017 80.469 27.4017C82.7644 27.4017 84.7207 28.02 86.8105 29.41C87.4859 29.8554 87.6654 30.7674 87.2184 31.4363C86.773 32.1117 85.8609 32.296 85.192 31.8507C83.5867 30.787 82.1771 30.3269 80.469 30.3269C75.4295 30.3269 71.3314 34.4316 71.3314 39.4662C71.3314 40.2819 71.3575 40.6392 71.5092 41.269C71.6952 42.0537 71.2106 42.8433 70.4258 43.0342C70.3116 43.0603 70.1975 43.0733 70.0817 43.0733Z" fill="#313131"/>
<path d="M100.316 48.6691C99.5048 48.6691 98.8489 48.0117 98.8489 47.209C98.8489 42.3277 94.8845 38.3568 90.0032 38.3568C85.1219 38.3568 81.1575 42.3277 81.1575 47.209C81.1575 48.0117 80.5018 48.6691 79.6926 48.6691C78.8834 48.6691 78.2324 48.0117 78.2324 47.209C78.2324 40.7159 83.5101 35.4316 90.0032 35.4316C96.4914 35.4316 101.774 40.7159 101.774 47.209C101.774 48.0117 101.118 48.6691 100.316 48.6691Z" fill="#313131"/>
<path d="M81.3167 137.473C80.6347 137.473 80.0736 138.028 80.0736 138.71V160.55C80.0736 161.232 80.6347 161.792 81.3167 161.792H97.1531C97.835 161.792 98.3898 161.232 98.3898 160.55V138.71C98.3898 138.028 97.835 137.473 97.1531 137.473H81.3167ZM97.1531 164.717H81.3167C79.0163 164.717 77.1484 162.844 77.1484 160.55V138.71C77.1484 136.416 79.0163 134.548 81.3167 134.548H97.1531C99.4469 134.548 101.315 136.416 101.315 138.71V160.55C101.315 162.844 99.4469 164.717 97.1531 164.717Z" fill="#313131"/>
<path d="M95.7633 131.318H82.7004C81.8961 131.318 81.2402 130.667 81.2402 129.858C81.2402 129.048 81.8961 128.393 82.7004 128.393H95.7633C96.5741 128.393 97.23 129.048 97.23 129.858C97.23 130.667 96.5741 131.318 95.7633 131.318Z" fill="#313131"/>
<path d="M84.6871 136.721C83.8779 136.721 83.2285 136.065 83.2285 135.263V129.858C83.2285 129.048 83.8779 128.393 84.6871 128.393C85.4963 128.393 86.1473 129.048 86.1473 129.858V135.263C86.1473 136.065 85.4963 136.721 84.6871 136.721Z" fill="#313131"/>
<path d="M93.7829 136.721C92.9738 136.721 92.3164 136.065 92.3164 135.263V129.858C92.3164 129.048 92.9738 128.393 93.7829 128.393C94.5921 128.393 95.2415 129.048 95.2415 129.858V135.263C95.2415 136.065 94.5921 136.721 93.7829 136.721Z" fill="#313131"/>
<path d="M85.6768 164.927C85.6768 163.57 84.5806 162.474 83.2233 162.474C81.8724 162.474 80.7695 163.57 80.7695 164.927C80.7695 166.285 81.8724 167.381 83.2233 167.381C84.5806 167.381 85.6768 166.285 85.6768 164.927Z" fill="#313131"/>
<path d="M97.7024 164.927C97.7024 163.57 96.5995 162.474 95.2487 162.474C93.8913 162.474 92.7949 163.57 92.7949 164.927C92.7949 166.285 93.8913 167.381 95.2487 167.381C96.5995 167.381 97.7024 166.285 97.7024 164.927Z" fill="#313131"/>
<path d="M84.6871 159.544C83.8779 159.544 83.2285 158.893 83.2285 158.083V141.144C83.2285 140.341 83.8779 139.686 84.6871 139.686C85.4963 139.686 86.1473 140.341 86.1473 141.144V158.083C86.1473 158.893 85.4963 159.544 84.6871 159.544Z" fill="#313131"/>
<path d="M93.7829 159.544C92.9738 159.544 92.3164 158.893 92.3164 158.083V141.144C92.3164 140.341 92.9738 139.686 93.7829 139.686C94.5921 139.686 95.2415 140.341 95.2415 141.144V158.083C95.2415 158.893 94.5921 159.544 93.7829 159.544Z" fill="#313131"/>
<path d="M28.2941 153.163C27.9238 153.163 27.5486 153.018 27.2615 152.737C26.6889 152.163 26.6889 151.233 27.2615 150.665L64.4094 113.519C64.9821 112.945 65.907 112.945 66.4796 113.519C67.0473 114.085 67.0473 115.017 66.4796 115.583L29.3335 152.737C29.0463 153.018 28.6693 153.163 28.2941 153.163Z" fill="#313131"/>
<path d="M152.264 153.763C151.896 153.763 151.519 153.616 151.232 153.336L113.493 115.596C112.919 115.021 112.919 114.098 113.493 113.524C114.066 112.958 114.991 112.958 115.564 113.524L153.304 151.264C153.871 151.838 153.871 152.761 153.304 153.336C153.016 153.616 152.641 153.763 152.264 153.763Z" fill="#313131"/>
<path d="M114.544 66.9136C114.176 66.9136 113.799 66.7667 113.512 66.4812C112.939 65.9135 112.939 64.9884 113.512 64.4158L150.673 27.2565C151.239 26.6888 152.17 26.6888 152.736 27.2565C153.31 27.8291 153.31 28.7542 152.736 29.3268L115.583 66.4861C115.296 66.7667 114.921 66.9136 114.544 66.9136Z" fill="#313131"/>
<path d="M65.4349 66.9332C65.0646 66.9332 64.6895 66.7864 64.4023 66.5057L26.6621 28.7657C26.0944 28.193 26.0944 27.268 26.6621 26.6953C27.2364 26.1276 28.1599 26.1276 28.7325 26.6953L66.4725 64.4354C67.0402 65.0081 67.0402 65.9331 66.4725 66.5057C66.187 66.7864 65.8101 66.9332 65.4349 66.9332Z" fill="#313131"/>
</svg>
