<svg width="180" height="180" viewBox="0 0 180 180" fill="none" xmlns="http://www.w3.org/2000/svg">
<path d="M89.9963 0C82.9428 0 76.0791 0.811072 69.4867 2.34573C63.7351 3.68467 58.2044 5.57813 52.9391 7.95944C42.3284 12.7606 32.818 19.5547 24.8822 27.8656C21.0078 31.9328 17.504 36.3573 14.4332 41.0948C5.30533 55.1751 0 71.9674 0 89.9978C0 125.815 20.9203 156.744 51.2131 171.237C62.9596 176.855 76.1132 180 89.9963 180C104.9 180 118.952 176.381 131.328 169.968C160.236 154.996 180 124.801 180 89.9978C180 65.4328 170.159 43.1691 154.201 26.9344C152.719 25.416 151.178 23.957 149.58 22.5439C133.71 8.51548 112.846 0 89.9963 0ZM89.9963 2.92548C100.81 2.92548 111.358 4.87679 121.355 8.74087C131.01 12.4656 139.854 17.851 147.645 24.7384C149.179 26.0936 150.686 27.5245 152.117 28.9776C159.953 36.9534 166.099 46.2044 170.384 56.4725C174.821 67.095 177.074 78.3788 177.074 89.9978C177.074 106.267 172.557 122.132 164.019 135.876C155.714 149.25 143.944 160.138 129.979 167.367C123.932 170.501 117.515 172.917 110.906 174.543C104.106 176.223 97.075 177.069 89.9963 177.069C83.3995 177.069 76.8249 176.333 70.455 174.874C64.2629 173.449 58.2103 171.341 52.4765 168.596C37.8564 161.605 25.4902 150.692 16.7107 137.034C7.69257 123.011 2.92549 106.749 2.92549 89.9978C2.92549 73.1373 7.7504 56.7735 16.8842 42.6873C19.8379 38.1352 23.2379 33.8262 27.0026 29.888C34.7812 21.7328 43.915 15.2517 54.1446 10.624C59.2764 8.30047 64.6618 6.47671 70.1525 5.1956C76.6173 3.69059 83.2957 2.92548 89.9963 2.92548Z" fill="#313131"/>
<path d="M42.7834 143.423H136.424V136.976H42.7834V143.423ZM137.883 146.349H41.3243C40.5133 146.349 39.8594 145.693 39.8594 144.888V135.511C39.8594 134.706 40.5133 134.052 41.3243 134.052H137.883C138.688 134.052 139.344 134.706 139.344 135.511V144.888C139.344 145.693 138.688 146.349 137.883 146.349Z" fill="#313131"/>
<path d="M45.8946 167.651C45.0835 167.651 44.4355 166.992 44.4355 166.186V144.888C44.4355 144.077 45.0835 143.423 45.8946 143.423C46.6997 143.423 47.3551 144.077 47.3551 144.888V166.186C47.3551 166.992 46.6997 167.651 45.8946 167.651Z" fill="#313131"/>
<path d="M131.427 168.977C130.622 168.977 129.967 168.323 129.967 167.512V144.888C129.967 144.077 130.622 143.423 131.427 143.423C132.238 143.423 132.886 144.077 132.886 144.888V167.512C132.886 168.323 132.238 168.977 131.427 168.977Z" fill="#313131"/>
<path d="M114.205 102.954L109.717 114.139L105.605 124.384L104.631 126.806L103.561 129.47L103.555 129.493L133.969 129.504L135.052 126.818L143.288 106.296L144.626 102.966L114.205 102.954ZM116.18 105.88L140.299 105.886L132.335 125.728L131.994 126.575L107.881 126.569L108.316 125.479L112.428 115.227L116.18 105.88Z" fill="#313131"/>
<path d="M133.447 131.394L89.0215 131.382V126.216L135.282 126.232L133.447 131.394Z" fill="#313131"/>
<path d="M126.239 116.704C125.96 118.025 124.86 118.912 123.782 118.679C122.706 118.454 122.062 117.196 122.347 115.876C122.624 114.549 123.724 113.67 124.802 113.901C125.88 114.127 126.522 115.384 126.239 116.704Z" fill="#313131"/>
<path d="M47.3551 134.052H62.7729V118.639H47.3551V134.052ZM64.2319 136.976H45.8946C45.0835 136.976 44.4355 136.322 44.4355 135.511V117.174C44.4355 116.369 45.0835 115.713 45.8946 115.713H64.2319C65.043 115.713 65.6984 116.369 65.6984 117.174V135.511C65.6984 136.322 65.043 136.976 64.2319 136.976Z" fill="#313131"/>
<path d="M55.066 136.976C54.2609 136.976 53.6055 136.322 53.6055 135.517V117.174C53.6055 116.369 54.2609 115.713 55.066 115.713C55.8771 115.713 56.531 116.369 56.531 117.174V135.517C56.531 136.322 55.8771 136.976 55.066 136.976Z" fill="#313131"/>
<path d="M59.4896 70.1184C52.3946 70.1184 46.6252 75.8879 46.6252 82.9829C46.6252 90.0779 52.3946 95.8473 59.4896 95.8473C66.5847 95.8473 72.3541 90.0779 72.3541 82.9829C72.3541 75.8879 66.5847 70.1184 59.4896 70.1184ZM59.4896 98.7728C50.7843 98.7728 43.7012 91.6882 43.7012 82.9829C43.7012 74.2776 50.7843 67.1944 59.4896 67.1944C68.1949 67.1944 75.2796 74.2776 75.2796 82.9829C75.2796 91.6882 68.1949 98.7728 59.4896 98.7728Z" fill="#313131"/>
<path d="M67.5219 84.4492H59.4883C58.6832 84.4492 58.0293 83.7879 58.0293 82.9828V74.7816C58.0293 73.9765 58.6832 73.3226 59.4883 73.3226C60.2994 73.3226 60.9533 73.9765 60.9533 74.7816V81.5178H67.5219C68.3271 81.5178 68.981 82.1777 68.981 82.9828C68.981 83.7879 68.3271 84.4492 67.5219 84.4492Z" fill="#313131"/>
<path d="M154.136 150.663C153.325 150.663 152.671 150.008 152.671 149.203V52.5164H27.3259V149.203C27.3259 150.008 26.6706 150.663 25.8595 150.663C25.0544 150.663 24.3945 150.008 24.3945 149.203V51.0515C24.3945 50.2463 25.0544 49.5924 25.8595 49.5924H154.136C154.941 49.5924 155.597 50.2463 155.597 51.0515V149.203C155.597 150.008 154.941 150.663 154.136 150.663Z" fill="#313131"/>
</svg>
