<svg width="180" height="180" viewBox="0 0 180 180" fill="none" xmlns="http://www.w3.org/2000/svg">
<path d="M55.2778 60.7533C54.9768 60.7533 54.6699 60.6614 54.4149 60.4701C53.9923 60.1632 53.767 59.6412 53.8307 59.1208L54.2711 55.402C54.3111 55.0595 54.4742 54.7407 54.7218 54.5035L55.7079 53.5827L50.3966 51.6892C50.0659 51.5735 49.7871 51.3407 49.6137 51.0338L47.784 47.8028C47.5112 47.3328 47.5289 46.7486 47.818 46.2964C48.1087 45.8397 48.6292 45.5787 49.1674 45.6247L58.8351 46.3942L85.8658 33.942C87.3204 33.2822 90.1984 32.6683 92.7176 32.477C96.5179 32.1923 98.7243 32.8477 99.4597 34.4802C100.121 35.9289 100.127 37.5614 99.4894 39.0738C98.8637 40.5447 97.6997 41.7265 96.1992 42.4041L82.9299 48.4049C82.1945 48.7355 81.3256 48.4108 80.989 47.6694C80.6598 46.934 80.983 46.071 81.7244 45.7344L94.9951 39.7396C95.8166 39.363 96.4601 38.7209 96.7952 37.9321C97.1036 37.2026 97.114 36.4271 96.8189 35.7376C96.5757 35.5523 95.3717 35.1578 92.4981 35.4307C90.1702 35.6561 87.9684 36.2017 87.0772 36.6006L59.7098 49.21C59.483 49.3138 59.2294 49.3598 58.9803 49.3375L51.6881 48.7578L51.8898 49.1166L58.9506 51.6373C59.431 51.8048 59.7899 52.2156 59.8952 52.7138C59.993 53.2179 59.8315 53.7339 59.4608 54.0809L57.115 56.2768L57.0394 56.8966L72.6321 49.8476C73.3676 49.511 74.2305 49.8416 74.5656 50.5771C74.8963 51.3125 74.5715 52.1814 73.8361 52.5121L55.8814 60.6258C55.6901 60.7133 55.4869 60.7533 55.2778 60.7533Z" fill="#313131"/>
<path d="M72.9643 67.3914C71.6328 67.3914 70.6823 66.7079 70.5548 66.6145C70.1381 66.2957 69.9187 65.7812 69.9869 65.2592L72.3163 47.2111C72.4142 46.4118 73.1496 45.8439 73.9488 45.9492C74.754 46.053 75.316 46.7825 75.2181 47.5877L73.034 64.46C73.1037 64.4541 73.1793 64.4422 73.2549 64.42C73.885 64.2346 74.5345 63.4058 75.0846 62.0861C77.1175 57.2137 81.5376 43.3485 81.5836 43.2031C81.8267 42.4395 82.6496 42.0095 83.4192 42.2542C84.1902 42.5033 84.6129 43.3247 84.3697 44.0957C84.1844 44.6681 79.868 58.228 77.7833 63.2145C76.8447 65.4624 75.5709 66.8235 73.9963 67.2521C73.6359 67.3499 73.289 67.3914 72.9643 67.3914Z" fill="#313131"/>
<path d="M67.6215 44.738C67.3309 44.738 67.0417 44.652 66.7867 44.4785L57.3638 37.944C56.7721 37.5333 56.5646 36.7563 56.8774 36.1142C57.5017 34.7931 59.5879 32.5867 63.0101 33.6469C66.1387 34.6137 76.2215 38.506 76.6515 38.6735C77.4033 38.9641 77.7799 39.8093 77.4908 40.5685C77.2016 41.3217 76.355 41.6924 75.5973 41.4018C75.492 41.3618 65.1764 37.382 62.1412 36.439C61.3835 36.2062 60.8156 36.2937 60.4049 36.4909L68.4548 42.0735C69.1206 42.5317 69.2837 43.4406 68.8255 44.1078C68.5423 44.5185 68.0841 44.738 67.6215 44.738Z" fill="#313131"/>
<path d="M89.9979 0C82.9429 0 76.0791 0.811073 69.4868 2.34573C63.7366 3.68467 58.2044 5.57813 52.9391 7.95944C42.3344 12.7606 32.824 19.5547 24.8882 27.8656C21.0078 31.9328 17.5041 36.3573 14.4348 41.0948C5.30539 55.1751 0 71.9674 0 89.9978C0 116.212 11.2082 139.814 29.0992 156.258C33.0908 159.931 37.4176 163.249 42.0215 166.157C44.9752 168.022 48.046 169.719 51.2132 171.237C62.9596 176.855 76.1133 180 89.9979 180C104.9 180 118.952 176.381 131.33 169.968C133.6 168.792 135.818 167.518 137.979 166.157C142.583 163.243 146.909 159.931 150.901 156.258C168.792 139.808 180 116.212 180 89.9978C180 82.5602 179.096 75.3377 177.393 68.428C177.156 67.4435 176.901 66.4708 176.622 65.5025C172.465 50.7624 164.645 37.5569 154.207 26.9344C152.719 25.416 151.178 23.957 149.586 22.5439C133.71 8.51548 112.847 0 89.9979 0ZM89.9979 2.92548C100.812 2.92548 111.359 4.87679 121.355 8.74087C131.011 12.4656 139.856 17.851 147.645 24.7384C149.181 26.0937 150.686 27.5245 152.117 28.9776C162.363 39.4104 169.864 52.3148 173.808 66.3017C174.069 67.2225 174.324 68.173 174.555 69.1234C176.229 75.9115 177.075 82.9368 177.075 89.9978C177.075 102.398 174.52 114.37 169.487 125.596C164.628 136.432 157.707 146.03 148.926 154.109C145.056 157.661 140.846 160.88 136.414 163.684C134.324 165.005 132.157 166.244 129.985 167.367C123.932 170.501 117.515 172.917 110.912 174.543C104.106 176.223 97.0751 177.069 89.9979 177.069C83.3996 177.069 76.8265 176.333 70.455 174.874C64.263 173.449 58.2163 171.341 52.4765 168.596C49.4295 167.136 46.4357 165.485 43.5858 163.678C39.1598 160.892 34.9502 157.665 31.0802 154.109C22.2933 146.03 15.3718 136.438 10.5128 125.596C5.48033 114.376 2.92552 102.398 2.92552 89.9978C2.92552 73.1373 7.75044 56.7735 16.8843 42.6873C19.8379 38.1352 23.2438 33.8262 27.0026 29.888C34.7871 21.7328 43.9151 15.2517 54.1447 10.624C59.2765 8.30048 64.6634 6.47671 70.154 5.1956C76.6174 3.69059 83.2958 2.92548 89.9979 2.92548Z" fill="#313131"/>
<path d="M124.089 128.329H91.3055L86.4762 140.434L82.0442 151.538L80.9958 154.155L79.8438 157.041L79.8379 157.063H112.62L113.78 154.155L122.647 131.938L124.089 128.329ZM119.775 131.254L111.063 153.067L110.633 154.139H84.1527L84.7606 152.621L89.1926 141.524L93.2865 131.254H119.775Z" fill="#313131"/>
<path d="M113.779 154.15H59.1484V159.114H111.751L113.779 154.15Z" fill="#313131"/>
<path d="M104.279 143.144C103.978 144.569 102.791 145.526 101.633 145.277C100.469 145.028 99.7734 143.672 100.08 142.253C100.381 140.828 101.569 139.872 102.727 140.121C103.887 140.366 104.58 141.721 104.279 143.144Z" fill="#313131"/>
<path d="M132.388 119.554C124.25 119.554 117.416 115.703 111.92 112.604C109.891 111.462 107.98 110.38 106.272 109.65C103.631 108.52 99.1531 108.295 94.8264 108.08C88.7218 107.773 82.9539 107.484 80.0981 104.883C74.305 99.5896 64.667 97.5968 54.4626 95.4824C45.1316 93.5533 35.4818 91.5561 28.022 86.8171C24.5583 84.6227 21.0486 83.9673 17.5893 84.8777C9.29621 87.0603 3.68983 97.3996 3.63646 97.5034C3.25538 98.2107 2.36869 98.482 1.65549 98.1009C0.943759 97.7243 0.676853 96.8376 1.05348 96.1259C1.30258 95.6559 7.29747 84.5708 16.8316 82.0501C21.1124 80.9217 25.4035 81.6972 29.5908 84.3498C36.5998 88.7981 45.9827 90.7391 55.0528 92.6148C65.6634 94.8167 75.6839 96.8895 82.0672 102.723C84.1461 104.616 89.8977 104.905 94.9717 105.154C99.767 105.398 104.303 105.625 107.424 106.962C109.277 107.755 111.258 108.873 113.355 110.055C118.823 113.136 125.015 116.63 132.388 116.63C132.429 116.63 132.475 116.63 132.515 116.63C135.893 116.612 140.596 115.713 145.571 114.77C156.449 112.696 168.785 110.35 174.953 115.488C175.573 116.004 175.661 116.931 175.139 117.55C174.624 118.17 173.703 118.25 173.084 117.736C167.974 113.479 156.361 115.691 146.115 117.642C141.007 118.616 136.176 119.537 132.533 119.554C132.487 119.554 132.441 119.554 132.388 119.554Z" fill="#313131"/>
<path d="M177.855 98.2746H67.1583C66.3531 98.2746 65.6992 97.6192 65.6992 96.8141C65.6992 96.0045 66.3531 95.3491 67.1583 95.3491H177.855C178.667 95.3491 179.322 96.0045 179.322 96.8141C179.322 97.6192 178.667 98.2746 177.855 98.2746Z" fill="#313131"/>
<path d="M102.584 82.4387C102.584 82.4387 107.791 82.977 115.877 82.4387C123.956 81.8945 126.649 82.7338 132.574 82.676C138.499 82.6181 139.936 83.4589 141.552 82.6819C143.168 81.8945 137.602 82.2534 133.831 80.8166C130.061 79.3813 129.881 77.6953 125.752 78.628C121.622 79.5607 123.777 81.5416 118.563 79.3812C113.356 77.2253 114.081 75.2562 110.31 77.0518C106.534 78.8475 108.509 80.0989 102.584 80.4577C96.6585 80.8166 93.9644 81.5416 95.4012 81.8945C96.838 82.2534 102.584 82.4387 102.584 82.4387Z" fill="#313131"/>
<path d="M62.0258 85.6992C62.0777 84.9459 61.8344 83.991 61.3362 83.4113C61.2784 83.3416 61.0011 83.1103 60.9893 83.0762C60.9255 82.9249 61.0827 82.7173 60.8039 82.5083C60.5785 82.3348 59.6637 82.2013 59.3449 82.1835C58.9565 82.1672 58.5457 82.2295 58.175 82.3288C58.6495 80.8342 57.1431 78.9808 55.5565 79.3114C55.0702 77.1614 52.5153 76.0731 50.4884 76.4897C51.1141 75.9515 52.0868 75.7261 52.9038 75.8418C53.2508 75.8937 53.8245 76.1724 54.1196 76.0612C54.7572 75.824 54.265 74.9669 54.0218 74.5962C53.101 73.2113 51.4151 73.1253 50.0658 73.9483C49.6373 74.2077 48.9878 74.921 48.9137 75.4251L48.8084 76.119C48.5652 75.8655 47.6904 75.1923 47.3612 75.2739C47.1922 75.222 45.6516 74.8513 45.4662 74.8453C45.0792 74.8394 44.7189 74.8572 44.6092 75.308C44.5973 75.3777 44.6492 75.4651 44.5973 75.523C44.5632 75.5689 44.1629 75.7484 44.071 75.8121C42.9989 76.5194 42.4489 77.8746 42.3391 79.1261C42.3095 79.433 42.2517 80.0869 42.606 80.2263C43.1443 80.4354 43.3637 79.9312 43.6824 79.6183C44.8761 78.4544 46.3811 77.1733 48.1723 77.3942L47.2915 77.7931C45.5878 78.6561 44.3082 80.2322 43.7284 82.0501C43.6306 82.3511 43.3756 83.1918 43.4512 83.4587C43.6544 84.1586 44.5277 83.6144 44.888 83.3831C45.3907 83.0643 45.9007 82.618 46.2833 82.1613C46.7815 82.7692 47.2041 82.1613 47.6266 81.8366C47.5288 82.2295 47.4769 82.6358 47.4013 83.0347C46.915 85.671 46.6302 88.3237 46.7815 91.0045C46.8156 91.5502 46.8571 92.5347 46.9905 93.0329C47.0306 93.1886 47.1521 93.282 47.2737 93.2924H47.2856C47.3553 93.2983 47.425 93.2761 47.4828 93.2242L49.6432 93.5193C49.7766 93.7506 50.1118 93.7328 50.1933 93.5074C50.2571 93.3161 49.9961 92.4532 49.9442 92.1803C49.3185 88.902 49.2206 85.5717 49.5038 82.2414C49.7811 82.6121 49.9961 83.18 50.5699 82.8493L51.2816 83.9614C51.1378 84.4774 50.9229 85.1669 50.9229 85.6992C50.9229 86.0877 51.381 86.273 51.6924 86.0817C52.5969 85.0156 53.8186 84.0726 55.2317 83.8694L54.7216 84.1942C53.5992 85.0156 52.7185 86.3827 52.4293 87.7498C52.3715 88.039 52.2781 88.3696 52.5613 88.5609C52.84 88.7522 53.1351 88.5787 53.3961 88.4393C53.8587 88.1902 54.3406 87.7854 54.6638 87.3791C55.0063 87.6638 55.2837 87.5526 55.5684 87.2694L54.8729 89.9621C54.4325 91.2655 53.9581 92.557 53.3442 93.7847C53.2508 94.0234 53.3783 94.2606 53.6452 94.2429L55.2198 94.3244C55.2673 94.5038 55.5505 94.5958 55.7018 94.4623C55.8293 94.3407 56.1763 93.1708 56.2519 92.9217C56.7664 91.138 57.0451 89.2845 57.2423 87.4429C57.4677 87.8017 57.659 88.1027 58.1394 87.9011C58.215 88.1442 58.3707 88.4097 58.5161 88.6247C58.6836 88.8738 59.1358 89.4535 59.3849 89.5974C59.6222 89.7427 60.0047 89.667 60.0966 89.3838C60.2182 89.0072 60.1841 88.2139 60.15 87.8017C60.0107 86.2389 59.2575 84.894 58.1054 83.8576C59.3509 84.2639 60.0685 85.4219 60.6705 86.5043C60.7639 86.6778 60.8973 87.0841 61.0471 87.176C61.3021 87.3273 61.6032 87.2516 61.7366 86.9966C61.7944 86.8987 61.8759 86.6378 61.9041 86.528C61.956 86.3027 62.0139 85.926 62.0258 85.6992Z" fill="#313131"/>
</svg>
