<svg width="180" height="180" viewBox="0 0 180 180" fill="none" xmlns="http://www.w3.org/2000/svg">
<path d="M89.997 0C82.942 0 76.0738 0.811079 69.4873 2.34575C63.7356 3.6847 58.2049 5.57817 52.9336 7.95951C42.3288 12.7607 32.8183 19.5548 24.8825 27.8658C21.008 31.933 17.5042 36.3576 14.4274 41.0951C5.29945 55.1755 0 71.9679 0 89.9985C0 125.816 20.9205 156.746 51.2136 171.238C62.9601 176.856 76.1079 180.001 89.997 180.001C104.894 180.001 118.953 176.382 131.323 169.969C160.238 154.997 180 124.802 180 89.9985C180 65.4334 170.16 43.1695 154.203 26.9346C152.714 25.4162 151.173 23.9572 149.581 22.5441C133.711 8.51555 112.847 0 89.997 0ZM89.997 2.9255C100.811 2.9255 111.358 4.87683 121.356 8.74094C131.005 12.4657 139.855 17.8511 147.646 24.7386C149.181 26.0939 150.681 27.5247 152.118 28.9779C159.954 36.9537 166.099 46.2048 170.386 56.473C174.822 67.0956 177.076 78.3795 177.076 89.9985C177.076 106.267 172.558 122.133 164.02 135.877C155.715 149.252 143.939 160.14 129.98 167.368C123.927 170.503 117.516 172.918 110.907 174.545C104.107 176.225 97.0758 177.07 89.997 177.07C83.4002 177.07 76.8255 176.335 70.4555 174.876C64.2635 173.451 58.2108 171.342 52.4754 168.597C37.8568 161.606 25.4904 150.693 16.7049 137.035C7.69114 123.012 2.9255 106.749 2.9255 89.9985C2.9255 73.1378 7.74897 56.774 16.8843 42.6876C19.838 38.1355 23.238 33.8265 27.0028 29.8883C34.7814 21.733 43.9153 15.2518 54.145 10.6241C59.2754 8.30054 64.6624 6.47676 70.1471 5.19564C76.618 3.69062 83.2964 2.9255 89.997 2.9255Z" fill="#313131"/>
<path d="M161.252 142.342H18.2736C17.4625 142.342 16.8086 141.687 16.8086 140.876C16.8086 140.07 17.4625 139.417 18.2736 139.417H161.252C162.057 139.417 162.711 140.07 162.711 140.876C162.711 141.687 162.057 142.342 161.252 142.342Z" fill="#313131"/>
<path d="M132.895 132.83H46.5934C45.7823 132.83 45.127 132.176 45.127 131.371V75.9981C45.127 75.1871 45.7823 74.5331 46.5934 74.5331C47.3985 74.5331 48.0525 75.1871 48.0525 75.9981V129.906H131.43V75.9981C131.43 75.1871 132.084 74.5331 132.895 74.5331C133.7 74.5331 134.354 75.1871 134.354 75.9981V131.371C134.354 132.176 133.7 132.83 132.895 132.83Z" fill="#313131"/>
<path d="M27.6696 139.416H152.484V132.83H27.6696V139.416ZM153.943 142.342H26.2106C25.3995 142.342 24.7441 141.687 24.7441 140.875V131.371C24.7441 130.56 25.3995 129.906 26.2106 129.906H153.943C154.754 129.906 155.408 130.56 155.408 131.371V140.875C155.408 141.687 154.754 142.342 153.943 142.342Z" fill="#313131"/>
<path d="M133.659 74.5332H140.796L90.6704 35.8357L40.5466 74.5332H46.7728L89.3848 42.1434C89.6398 41.9522 89.9527 41.8484 90.2715 41.8484H91.0707C91.3954 41.8484 91.7127 41.9522 91.9678 42.1553L133.659 74.5332ZM145.082 77.4587H133.162C132.837 77.4587 132.519 77.3534 132.264 77.1517L90.6644 44.8495L48.1518 77.1622C47.8967 77.3534 47.5839 77.4587 47.2651 77.4587H36.2599C35.6342 77.4587 35.0782 77.0583 34.875 76.4682C34.6734 75.8766 34.8706 75.2227 35.3673 74.8401L89.3789 33.1371C89.6339 32.9399 89.9467 32.8361 90.2715 32.8361H91.0707C91.3954 32.8361 91.7083 32.9399 91.9619 33.1371L145.973 74.8401C146.472 75.2227 146.669 75.8766 146.466 76.4682C146.263 77.0583 145.708 77.4587 145.082 77.4587Z" fill="#313131"/>
<path d="M127.727 64.0618C126.918 64.0618 126.262 63.4064 126.262 62.6012V44.2296H118.131V54.0634C118.131 54.8686 117.475 55.5239 116.67 55.5239C115.86 55.5239 115.205 54.8686 115.205 54.0634V42.7691C115.205 41.9581 115.86 41.3041 116.67 41.3041H127.727C128.532 41.3041 129.188 41.9581 129.188 42.7691V62.6012C129.188 63.4064 128.532 64.0618 127.727 64.0618Z" fill="#313131"/>
<path d="M114.514 139.456H66.5211L51.2129 170.902C62.9594 176.735 76.1131 180.001 89.9964 180.001C104.9 180.001 118.952 176.243 131.323 169.588L114.514 139.456ZM112.794 142.382L127.297 168.371C122.039 170.965 116.531 173.01 110.883 174.453C104.089 176.191 97.0633 177.07 89.9964 177.07C83.4054 177.07 76.8427 176.306 70.4771 174.788C65.2236 173.543 60.0755 171.777 55.1334 169.529L68.3523 142.382H112.794Z" fill="#313131"/>
<path d="M89.8479 105.428C89.2444 105.428 88.7522 105.921 88.7522 106.523C88.7522 107.131 89.2444 107.618 89.8479 107.618H120.006C120.616 107.618 121.102 107.131 121.102 106.523C121.102 105.921 120.616 105.428 120.006 105.428H89.8479ZM120.006 110.542H89.8479C87.6297 110.542 85.8281 108.741 85.8281 106.523C85.8281 104.304 87.6297 102.503 89.8479 102.503H120.006C122.226 102.503 124.026 104.304 124.026 106.523C124.026 108.741 122.226 110.542 120.006 110.542Z" fill="#313131"/>
<path d="M107.772 131.371H102.086L103.053 109.083H107.021L107.772 131.371Z" fill="#313131"/>
<path d="M54.509 107.288L54.4512 106.975H54.4616L54.509 107.288Z" fill="#313131"/>
<path d="M85.5675 116.497H60.175L59.9021 115.055L54.9037 84.3284C54.7821 83.5336 55.3263 82.7864 56.1255 82.6648C56.9247 82.5387 57.672 83.0888 57.7936 83.888L61.8831 106.975H76.0451C81.2986 106.975 85.5675 111.238 85.5675 116.497Z" fill="#313131"/>
<path d="M78.7203 131.215C77.9151 131.215 77.2598 130.56 77.2598 129.749V116.497C77.2598 115.692 77.9151 115.037 78.7203 115.037C79.5314 115.037 80.1853 115.692 80.1853 116.497V129.749C80.1853 130.56 79.5314 131.215 78.7203 131.215Z" fill="#313131"/>
<path d="M54.451 131.678C54.2598 131.678 54.0685 131.638 53.8831 131.562C53.1418 131.249 52.7874 130.398 53.1003 129.651L61.0301 110.652C61.3371 109.906 62.1941 109.552 62.9414 109.865C63.6888 110.178 64.0417 111.035 63.7288 111.776L55.8004 130.775C55.5676 131.337 55.0234 131.678 54.451 131.678Z" fill="#313131"/>
<path d="M114.915 93.1078C113.901 93.1078 113.074 92.3842 113.074 91.4871C113.074 90.5945 113.901 89.865 114.915 89.865C115.934 89.865 116.757 90.5945 116.757 91.4871C116.757 92.3842 115.934 93.1078 114.915 93.1078ZM107.836 81.9811L101.68 97.3367L101.674 97.3545L100.215 100.98L100.209 100.998H121.998L129.621 81.9811H107.836Z" fill="#313131"/>
<path d="M86.4648 97.3546H112.019V100.998H86.4648V97.3546Z" fill="#313131"/>
</svg>
