<svg width="180" height="180" viewBox="0 0 180 180" fill="none" xmlns="http://www.w3.org/2000/svg">
<path d="M90.0024 0C82.9438 0 76.0795 0.807322 69.4895 2.34968C63.7406 3.685 58.2051 5.57238 52.9393 7.96216C42.3305 12.7577 32.8196 19.5531 24.8831 27.8668C21.0024 31.9353 17.5036 36.3618 14.4317 41.0948C5.30437 55.1766 0 71.9644 0 90.0024C0 125.818 20.9205 156.752 51.214 171.24C62.9638 176.857 76.11 179.998 90.0024 179.998C104.9 179.998 118.954 176.381 131.33 169.967C160.238 154.996 180 124.803 180 90.0024C180 65.4386 170.163 43.17 154.207 26.9327C152.721 25.416 151.18 23.9539 149.586 22.5432C133.713 8.51269 112.849 0 90.0024 0ZM90.0024 2.92744C100.812 2.92744 111.363 4.88388 121.355 8.73897C131.01 12.4689 139.857 17.8487 147.649 24.7387C149.185 26.0917 150.684 27.5217 152.119 28.9822C159.956 36.9572 166.1 46.2049 170.388 56.4734C174.827 67.0998 177.077 78.3793 177.077 90.0024C177.077 106.265 172.564 122.132 164.024 135.882C155.719 149.254 143.945 160.144 129.982 167.372C123.933 170.507 117.513 172.921 110.912 174.55C104.108 176.224 97.0754 177.077 90.0024 177.077C83.4012 177.077 76.8241 176.337 70.4621 174.877C64.2606 173.453 58.2179 171.34 52.4754 168.6C37.8607 161.61 25.4914 150.695 16.7075 137.034C7.69253 123.016 2.92102 106.747 2.92102 90.0024C2.92102 73.1376 7.74868 56.7751 16.8841 42.6869C19.8372 38.1352 23.2413 33.8291 27.0017 29.8858C34.7825 21.7358 43.9162 15.2518 54.143 10.6264C59.2772 8.2992 64.6618 6.47598 70.154 5.19684C76.6171 3.68498 83.2953 2.92744 90.0024 2.92744Z" fill="#313131"/>
<path d="M161.255 142.338H89.7462C88.9373 142.338 88.2793 141.687 88.2793 140.878C88.2793 140.069 88.9373 139.417 89.7462 139.417H161.255C162.064 139.417 162.715 140.069 162.715 140.878C162.715 141.687 162.064 142.338 161.255 142.338Z" fill="#313131"/>
<path d="M142.854 132.834H36.6324C35.8235 132.834 35.1719 132.176 35.1719 131.373V75.9958C35.1719 75.187 35.8235 74.5353 36.6324 74.5353C37.4413 74.5353 38.0945 75.187 38.0945 75.9958V129.906H141.394V75.9958C141.394 75.187 142.052 74.5353 142.854 74.5353C143.663 74.5353 144.321 75.187 144.321 75.9958V131.373C144.321 132.176 143.663 132.834 142.854 132.834Z" fill="#313131"/>
<path d="M27.6716 139.417H152.489V132.834H27.6716V139.417ZM153.949 142.338H26.2047C25.3958 142.338 24.7441 141.686 24.7441 140.878V131.367C24.7441 130.564 25.3958 129.906 26.2047 129.906H153.949C154.752 129.906 155.41 130.564 155.41 131.367V140.878C155.41 141.686 154.752 142.338 153.949 142.338Z" fill="#313131"/>
<path d="M99.3934 103.914C97.7692 103.914 96.4532 102.754 96.4532 101.319C96.4532 99.8889 97.7692 98.7285 99.3934 98.7285C101.018 98.7285 102.334 99.8889 102.334 101.319C102.334 102.754 101.018 103.914 99.3934 103.914ZM88.0834 86.1393L78.2466 110.666L75.9146 116.478L75.9082 116.502H110.704L122.879 86.1393H88.0834Z" fill="#313131"/>
<path d="M53.9473 110.666H94.7676V116.478H53.9473V110.666Z" fill="#313131"/>
<path d="M134.823 64.0601C134.014 64.0601 133.362 63.4069 133.362 62.598V44.2293H125.232V54.0596C125.232 54.8685 124.572 55.5201 123.763 55.5201C122.961 55.5201 122.303 54.8685 122.303 54.0596V42.7688C122.303 41.9599 122.961 41.3083 123.763 41.3083H134.823C135.632 41.3083 136.283 41.9599 136.283 42.7688V62.598C136.283 63.4069 135.632 64.0601 134.823 64.0601Z" fill="#313131"/>
<path d="M90.0021 179.703C89.1932 179.703 88.5352 179.045 88.5352 178.242V119.681C88.5352 118.872 89.1932 118.22 90.0021 118.22C90.8046 118.22 91.4625 118.872 91.4625 119.681V178.242C91.4625 179.045 90.8046 179.703 90.0021 179.703Z" fill="#313131"/>
<path d="M90.0021 83.6693C89.1932 83.6693 88.5352 83.0112 88.5352 82.2088V1.83606C88.5352 1.03358 89.1932 0.375549 90.0021 0.375549C90.8046 0.375549 91.4625 1.03358 91.4625 1.83606V82.2088C91.4625 83.0112 90.8046 83.6693 90.0021 83.6693Z" fill="#313131"/>
<path d="M89.7454 77.4628H25.2217C24.5765 77.4628 24.0051 77.0375 23.8237 76.4164C23.6424 75.7952 23.8799 75.1308 24.4256 74.7729L88.1276 33.0763C88.8049 32.6317 89.7085 32.8195 90.1531 33.4968C90.5929 34.1741 90.4035 35.0825 89.7262 35.5206L30.1312 74.5354H89.7454C90.5479 74.5354 91.206 75.187 91.206 75.9959C91.206 76.8048 90.5479 77.4628 89.7454 77.4628Z" fill="#313131"/>
<path d="M154.778 77.4628H142.854C142.578 77.4628 142.308 77.3809 142.077 77.2317L90.2915 44.5421C89.6078 44.1168 89.4008 43.2131 89.8342 42.531C90.2659 41.8473 91.1695 41.6403 91.8532 42.0721L143.281 74.5354H149.869L90.2722 35.5206C89.5949 35.0825 89.4072 34.1741 89.847 33.4968C90.2916 32.8195 91.1999 32.6317 91.8708 33.0763L155.581 74.7729C156.12 75.1308 156.364 75.7952 156.176 76.4164C155.995 77.0375 155.424 77.4628 154.778 77.4628Z" fill="#313131"/>
<path d="M45.6554 165.761C44.8465 165.761 44.1934 165.103 44.1934 164.3V140.878C44.1934 140.069 44.8465 139.417 45.6554 139.417H57.4855C58.2928 139.417 58.946 140.069 58.946 140.878V161.679C58.946 162.488 58.2928 163.14 57.4855 163.14C56.6766 163.14 56.0235 162.488 56.0235 161.679V142.338H47.1159V164.3C47.1159 165.103 46.4627 165.761 45.6554 165.761Z" fill="#313131"/>
<path d="M75.8046 166.501C73.4726 166.501 71.2273 165.893 68.8825 165.252C64.1174 163.962 58.7071 162.501 49.9681 164.983C47.6795 165.636 45.3731 166.055 43.1102 166.231C42.3013 166.3 41.5983 165.692 41.5357 164.889C41.4731 164.087 42.075 163.378 42.8839 163.315C44.9527 163.153 47.0648 162.771 49.1721 162.169C58.6894 159.466 64.7706 161.108 69.648 162.432C72.5064 163.203 74.97 163.873 77.4593 163.429C84.5179 162.18 89.4338 160.331 89.4836 160.312C90.2363 160.025 91.0821 160.407 91.371 161.159C91.6535 161.917 91.2763 162.758 90.5188 163.045C90.3117 163.127 85.3139 165.008 77.9729 166.313C77.2394 166.445 76.5188 166.501 75.8046 166.501Z" fill="#313131"/>
<path d="M82.1994 154.889C81.015 154.889 79.6861 154.777 78.1935 154.513C75.0526 153.968 72.2744 153.329 69.8237 152.764C65.065 151.673 61.3094 150.814 57.6293 151.178C56.822 151.254 56.1126 150.671 56.0308 149.869C55.9505 149.06 56.5395 148.344 57.342 148.269C61.4988 147.856 65.4598 148.764 70.4753 149.918C72.8956 150.469 75.6352 151.096 78.7007 151.636C86.5136 152.997 88.3689 149.774 88.4444 149.636L88.4251 149.666L91.0636 150.939C90.9705 151.129 89.0638 154.889 82.1994 154.889Z" fill="#313131"/>
<path d="M38.2876 153.924C36.1611 153.924 33.8804 153.674 31.8422 152.896C26.9214 151.034 25.196 151.084 25.1784 151.09C25.2153 151.084 25.2346 151.084 25.2346 151.084L24.9023 148.175C25.2474 148.137 27.2841 148.044 32.8773 150.162C37.8976 152.069 45.2018 150.137 45.2708 150.119C46.0492 149.906 46.8517 150.369 47.0635 151.146C47.277 151.931 46.8131 152.734 46.0363 152.941C45.8164 153.003 42.3305 153.924 38.2876 153.924Z" fill="#313131"/>
</svg>
