<svg width="180" height="180" viewBox="0 0 180 180" fill="none" xmlns="http://www.w3.org/2000/svg">
<path d="M90.0007 0C82.9425 0 76.0772 0.809342 69.4884 2.34745C63.7391 3.68638 58.2063 5.57704 52.9391 7.95929C52.7842 8.02727 52.6292 8.09523 52.4822 8.16953C42.0585 12.9562 32.7035 19.6745 24.8865 27.8678C21.0088 31.932 17.501 36.3582 14.4311 41.0943C5.30518 55.1744 0 71.9703 0 90.0008C0 125.766 20.8601 156.66 51.0801 171.176C51.1228 171.195 51.1671 171.22 51.2161 171.239C58.1748 174.567 65.6407 177.031 73.4514 178.482C77.5836 179.254 81.8186 179.741 86.1294 179.921C87.413 179.976 88.7045 180 90.0007 180C91.6194 180 93.2303 179.957 94.8238 179.877C98.4975 179.679 102.11 179.266 105.654 178.648C114.286 177.129 122.494 174.388 130.094 170.602C130.509 170.392 130.923 170.183 131.331 169.973C160.242 154.998 180.002 124.808 180.002 90.0008C180.002 65.4369 170.164 43.1698 154.208 26.9288C152.72 25.416 151.182 23.9537 149.589 22.5452C143.019 16.7342 135.591 11.8749 127.519 8.16953C116.103 2.9213 103.395 0 90.0007 0ZM90.0007 2.92129C102.672 2.92129 114.879 5.58334 126.304 10.8252C134.053 14.3884 141.234 19.0691 147.651 24.7378C149.182 26.0957 150.689 27.5216 152.121 28.9791C159.957 36.9573 166.102 46.2018 170.394 56.4706C174.826 67.0983 177.08 78.3788 177.08 90.0008C177.08 106.266 172.567 122.135 164.026 135.88C155.714 149.255 143.945 160.142 129.99 167.373C129.595 167.577 129.193 167.78 128.792 167.978C121.321 171.707 113.366 174.32 105.154 175.765C101.702 176.37 98.1765 176.772 94.6624 176.951C93.1322 177.038 91.5625 177.074 90.0007 177.074C88.7345 177.074 87.4747 177.049 86.2527 176.993C82.1395 176.827 78.0153 176.358 73.9827 175.61C66.5482 174.227 59.3114 171.868 52.476 168.596C52.4634 168.59 52.4506 168.584 52.4316 168.577H52.427C52.3954 168.558 52.3589 168.546 52.3272 168.528C37.7539 161.525 25.4238 150.615 16.6662 136.974C7.67627 122.968 2.92761 106.722 2.92761 90.0008C2.92761 73.1369 7.75051 56.7725 16.8827 42.6877C19.8341 38.1366 23.2376 33.8273 26.9983 29.888C34.6667 21.8544 43.6519 15.4443 53.7104 10.8252C53.8527 10.7573 53.995 10.6893 54.1373 10.6276L54.1421 10.6213C59.2797 8.29915 64.6654 6.47177 70.1492 5.19291C76.6193 3.68641 83.295 2.92129 90.0007 2.92129Z" fill="#313131"/>
<path d="M89.7828 130.483C84.7748 130.483 80.6996 134.558 80.6996 139.566C80.6996 144.574 84.7748 148.65 89.7828 148.65C94.7907 148.65 98.866 144.574 98.866 139.566C98.866 134.558 94.7907 130.483 89.7828 130.483ZM89.7828 151.577C83.164 151.577 77.7734 146.187 77.7734 139.566C77.7734 132.941 83.164 127.557 89.7828 127.557C96.4031 127.557 101.794 132.941 101.794 139.566C101.794 146.187 96.4031 151.577 89.7828 151.577Z" fill="#313131"/>
<path d="M66.5525 101.77C59.2729 101.77 53.3498 107.691 53.3498 114.972C53.3498 122.252 59.2729 128.167 66.5525 128.167C73.8273 128.167 79.7489 122.252 79.7489 114.972C79.7489 107.691 73.8273 101.77 66.5525 101.77ZM66.5525 131.095C57.6605 131.095 50.4238 123.864 50.4238 114.972C50.4238 106.081 57.6605 98.85 66.5525 98.85C75.4381 98.85 82.6751 106.081 82.6751 114.972C82.6751 123.864 75.4381 131.095 66.5525 131.095Z" fill="#313131"/>
<path d="M114.39 101.77C107.109 101.77 101.187 107.691 101.187 114.972C101.187 122.252 107.109 128.167 114.39 128.167C121.67 128.167 127.585 122.252 127.585 114.972C127.585 107.691 121.67 101.77 114.39 101.77ZM114.39 131.095C105.498 131.095 98.2676 123.864 98.2676 114.972C98.2676 106.081 105.498 98.85 114.39 98.85C123.282 98.85 130.512 106.081 130.512 114.972C130.512 123.864 123.282 131.095 114.39 131.095Z" fill="#313131"/>
<path d="M30.1211 54.3523C29.4366 54.3523 28.8803 54.9025 28.8803 55.5869V85.6789C28.8803 86.3633 29.4366 86.9198 30.1211 86.9198H52.3946C53.0743 86.9198 53.6292 86.3633 53.6292 85.6789V55.5869C53.6292 54.9025 53.0743 54.3523 52.3946 54.3523H30.1211ZM52.3946 89.8459H30.1211C27.8242 89.8459 25.959 87.9757 25.959 85.6789V55.5869C25.959 53.2901 27.8242 51.4263 30.1211 51.4263H52.3946C54.6915 51.4263 56.5567 53.2901 56.5567 55.5869V85.6789C56.5567 87.9757 54.6915 89.8459 52.3946 89.8459Z" fill="#313131"/>
<path d="M49.7641 46.3314H32.7453C31.9375 46.3314 31.2832 45.677 31.2832 44.8676C31.2832 44.0582 31.9375 43.4038 32.7453 43.4038H49.7641C50.5735 43.4038 51.228 44.0582 51.228 44.8676C51.228 45.677 50.5735 46.3314 49.7641 46.3314Z" fill="#313131"/>
<path d="M35.3328 53.3707C34.5234 53.3707 33.8691 52.7162 33.8691 51.9069V44.8676C33.8691 44.0582 34.5234 43.4038 35.3328 43.4038C36.1422 43.4038 36.7967 44.0582 36.7967 44.8676V51.9069C36.7967 52.7162 36.1422 53.3707 35.3328 53.3707Z" fill="#313131"/>
<path d="M47.1826 53.3707C46.3732 53.3707 45.7188 52.7162 45.7188 51.9069V44.8676C45.7188 44.0582 46.3732 43.4038 47.1826 43.4038C47.9856 43.4038 48.6401 44.0582 48.6401 44.8676V51.9069C48.6401 52.7162 47.9856 53.3707 47.1826 53.3707Z" fill="#313131"/>
<path d="M36.6225 90.562C36.6225 88.7963 35.1904 87.3704 33.4246 87.3704C31.6589 87.3704 30.2266 88.7963 30.2266 90.562C30.2266 92.3293 31.6589 93.7615 33.4246 93.7615C35.1904 93.7615 36.6225 92.3293 36.6225 90.562Z" fill="#313131"/>
<path d="M52.2837 90.562C52.2837 88.7963 50.8499 87.3704 49.0904 87.3704C47.3247 87.3704 45.8926 88.7963 45.8926 90.562C45.8926 92.3293 47.3247 93.7615 49.0904 93.7615C50.8562 93.7615 52.2837 92.3293 52.2837 90.562Z" fill="#313131"/>
<path d="M35.3328 83.1101C34.5234 83.1101 33.8691 82.4541 33.8691 81.6463V59.5769C33.8691 58.7738 34.5234 58.1194 35.3328 58.1194C36.1422 58.1194 36.7967 58.7738 36.7967 59.5769V81.6463C36.7967 82.4541 36.1422 83.1101 35.3328 83.1101Z" fill="#313131"/>
<path d="M47.1826 83.1101C46.3732 83.1101 45.7188 82.4541 45.7188 81.6463V59.5769C45.7188 58.7738 46.3732 58.1194 47.1826 58.1194C47.9856 58.1194 48.6401 58.7738 48.6401 59.5769V81.6463C48.6401 82.4541 47.9856 83.1101 47.1826 83.1101Z" fill="#313131"/>
<path d="M159.526 65.6534C159.229 65.6534 158.933 65.5601 158.674 65.3752L137.684 50.1964L116.813 65.3689C116.159 65.851 115.245 65.7024 114.769 65.048C114.293 64.3998 114.442 63.4798 115.096 63.004L136.826 47.2087C137.333 46.8309 138.031 46.8309 138.543 47.2024L160.385 63.004C161.039 63.4798 161.186 64.3935 160.712 65.048C160.427 65.4431 159.983 65.6534 159.526 65.6534Z" fill="#313131"/>
<path d="M154.837 87.8698H142.493C141.684 87.8698 141.029 87.2154 141.029 86.406V74.8662C141.029 73.1858 139.665 71.8216 137.986 71.8216C136.306 71.8216 134.942 73.1858 134.942 74.8662V86.406C134.942 87.2154 134.287 87.8698 133.478 87.8698H121.258C120.455 87.8698 119.801 87.2154 119.801 86.406V66.5971C119.801 65.7877 120.455 65.1333 121.258 65.1333C122.066 65.1333 122.72 65.7877 122.72 66.5971V84.9438H132.02V74.8662C132.02 71.575 134.695 68.894 137.986 68.894C141.277 68.894 143.957 71.575 143.957 74.8662V84.9438H153.374V66.5971C153.374 65.7877 154.028 65.1333 154.837 65.1333C155.64 65.1333 156.295 65.7877 156.295 66.5971V86.406C156.295 87.2154 155.64 87.8698 154.837 87.8698Z" fill="#313131"/>
<path d="M38.1925 162.52C37.4511 162.52 36.8157 161.957 36.7414 161.204C36.6355 160.191 36.5801 159.161 36.5801 158.141C36.5801 141.808 49.8683 128.52 66.201 128.52C71.3576 128.52 76.4334 129.861 80.8849 132.41C81.5899 132.812 81.8302 133.7 81.4287 134.405C81.0271 135.102 80.1388 135.349 79.4338 134.948C75.4265 132.657 70.8517 131.441 66.201 131.441C51.4807 131.441 39.5078 143.421 39.5078 158.141C39.5078 159.061 39.5567 159.994 39.65 160.907C39.729 161.71 39.1489 162.433 38.3396 162.513C38.2906 162.52 38.2415 162.52 38.1925 162.52Z" fill="#313131"/>
<path d="M141.721 162.539C141.666 162.539 141.611 162.532 141.554 162.526C140.752 162.433 140.177 161.71 140.27 160.901C140.387 159.877 140.449 158.833 140.449 157.79C140.449 143.068 128.476 131.095 113.754 131.095C108.796 131.095 103.961 132.466 99.7622 135.047C99.0761 135.474 98.175 135.257 97.7482 134.571C97.3293 133.887 97.5396 132.984 98.2304 132.559C102.886 129.687 108.253 128.168 113.754 128.168C130.086 128.168 143.376 141.457 143.376 157.79C143.376 158.944 143.308 160.106 143.172 161.241C143.085 161.989 142.456 162.539 141.721 162.539Z" fill="#313131"/>
<path d="M111.71 176.741C111.644 176.741 111.576 176.734 111.508 176.728C110.711 176.617 110.148 175.876 110.259 175.079C110.39 174.147 110.452 173.19 110.452 172.245C110.452 160.846 101.182 151.578 89.7828 151.578C78.3838 151.578 69.1156 160.846 69.1156 172.245C69.1156 173.165 69.1771 174.098 69.2941 175.005C69.4 175.808 68.8373 176.543 68.0406 176.647C67.2391 176.753 66.5042 176.191 66.3982 175.394C66.2576 174.357 66.1895 173.295 66.1895 172.245C66.1895 159.235 76.7729 148.65 89.7828 148.65C102.794 148.65 113.378 159.235 113.378 172.245C113.378 173.326 113.303 174.412 113.156 175.474C113.057 176.21 112.428 176.741 111.71 176.741Z" fill="#313131"/>
</svg>
