<svg width="180" height="180" viewBox="0 0 180 180" fill="none" xmlns="http://www.w3.org/2000/svg">
<path d="M90.0315 66.59C89.9947 66.59 89.9595 66.59 89.9166 66.59C83.1187 66.613 76.6732 69.5883 72.2317 74.753C68.5868 78.9892 66.5828 84.4052 66.5828 90.0019C66.5828 94.1493 67.6844 98.2185 69.7604 101.773C73.9445 108.955 81.7 113.414 89.9947 113.414C98.3615 113.414 106.148 108.902 110.313 101.641C112.342 98.1174 113.407 94.0956 113.407 90.0019C113.407 87.2012 112.922 84.4649 111.959 81.868C108.571 72.7291 99.7434 66.59 89.9947 66.59C90.0009 66.59 90.0192 66.59 90.0315 66.59ZM89.9947 116.293C80.6766 116.293 71.9681 111.283 67.2707 103.222C64.9419 99.2297 63.7102 94.6579 63.7102 90.0019C63.7102 83.7173 65.9609 77.6364 70.0485 72.8792C75.0278 67.0864 82.25 63.7465 89.8752 63.7158C89.9166 63.7112 89.9595 63.7112 89.9947 63.7112C95.4704 63.7112 100.725 65.3797 105.178 68.5342C109.529 71.6168 112.809 75.8837 114.652 80.8691C115.735 83.7831 116.285 86.8596 116.285 90.0019C116.285 94.5982 115.083 99.1163 112.809 103.078C108.129 111.229 99.3911 116.293 89.9947 116.293ZM90.0009 2.88108C86.327 2.88108 82.6392 3.11549 78.9591 3.58125C67.4025 5.05972 56.3791 8.81332 46.2106 14.7257C36.036 20.6441 27.3292 28.3705 20.3321 37.6887C13.5694 46.6958 8.67436 56.8045 5.7833 67.7329C2.89225 78.6598 2.15692 89.8701 3.58176 101.038C5.0541 112.6 8.80617 123.618 14.7185 133.792C20.6385 143.961 28.3648 152.668 37.6876 159.669C46.6887 166.427 56.7974 171.322 67.7319 174.213C78.6603 177.103 89.8691 177.846 101.036 176.421C112.599 174.943 123.616 171.197 133.791 165.278C143.96 159.358 152.667 151.632 159.664 142.314C166.426 133.306 171.321 123.205 174.212 112.271C177.103 101.336 177.845 90.1337 176.414 78.9662C174.942 67.4035 171.189 56.3786 165.277 46.2117C159.359 36.0432 151.632 27.3348 142.308 20.3331C133.307 13.5766 123.198 8.68156 112.264 5.7905C104.939 3.85087 97.4821 2.88108 90.0009 2.88108ZM89.9947 180C82.2623 180 74.5665 179.001 66.9949 176.996C55.7019 174.01 45.2592 168.952 35.9594 161.967C26.3287 154.739 18.3449 145.744 12.2349 135.234C6.12496 124.731 2.25342 113.348 0.725924 101.402C-0.744883 89.864 0.0211834 78.2891 3.00723 66.996C5.99328 55.7091 11.0445 45.2664 18.0278 35.965C25.2639 26.3297 34.2526 18.3521 44.7628 12.2421C55.2653 6.13216 66.6549 2.25291 78.5945 0.726951C90.1388 -0.745388 101.712 0.0206315 113.001 3.00821C124.294 5.99426 134.736 11.0517 144.038 18.035C153.667 25.2649 161.651 34.2598 167.761 44.7623C173.871 55.2725 177.744 66.6544 179.27 78.6001C180.742 90.1398 179.976 101.713 176.988 113.006C174.009 124.299 168.951 134.737 161.968 144.037C154.738 153.673 145.743 161.65 135.233 167.762C124.73 173.878 113.341 177.749 101.401 179.275C97.6016 179.761 93.7959 180 89.9947 180Z" fill="#313131"/>
<path d="M13.4809 135.952C12.983 135.952 12.5049 135.695 12.2353 135.24C11.8339 134.552 12.0683 133.673 12.7562 133.271L67.792 101.252C68.4799 100.858 69.3593 101.091 69.7607 101.779C70.156 102.462 69.9216 103.342 69.2398 103.743L14.2041 135.755C13.9773 135.893 13.7261 135.952 13.4809 135.952Z" fill="#313131"/>
<path d="M166.808 135.45C166.563 135.45 166.316 135.39 166.089 135.258L110.843 103.605C110.156 103.21 109.917 102.331 110.312 101.641C110.707 100.953 111.586 100.714 112.274 101.109L167.52 132.762C168.214 133.158 168.447 134.037 168.052 134.725C167.788 135.192 167.304 135.45 166.808 135.45Z" fill="#313131"/>
<path d="M20.0818 79.6296H2.27729C1.48214 79.6296 0.841797 78.9831 0.841797 78.1879C0.841797 77.3973 1.48214 76.7508 2.27729 76.7508H18.6401V65.2785C18.6401 64.4818 19.2866 63.8429 20.0818 63.8429H29.0537V54.655C29.0537 53.8599 29.7002 53.2194 30.4892 53.2194H32.8778C35.2234 50.071 37.7437 48.5511 40.3652 48.689C43.7342 48.8744 46.0982 51.8007 47.0496 53.2194H49.6526C50.4432 53.2194 51.0898 53.8599 51.0898 54.655V67.1691H62.1484C62.9389 67.1691 63.5855 67.8156 63.5855 68.6123V72.3767H71.1433C71.94 72.3767 72.5804 73.0232 72.5804 73.8123C72.5804 74.609 71.94 75.2555 71.1433 75.2555H62.1484C61.3532 75.2555 60.7067 74.609 60.7067 73.8123V70.0479H49.6526C48.8559 70.0479 48.2109 69.4014 48.2109 68.6123V56.0921H46.2529C45.7274 56.0921 45.2418 55.804 44.9905 55.3444C44.4344 54.3332 42.4886 51.6812 40.2027 51.5617C38.4791 51.4774 36.6606 52.795 34.7991 55.4762C34.5294 55.8653 34.0866 56.0921 33.6132 56.0921H31.9325V65.2785C31.9325 66.0752 31.2859 66.7156 30.4892 66.7156H21.5189V78.1879C21.5189 78.9831 20.8723 79.6296 20.0818 79.6296Z" fill="#313131"/>
<path d="M89.917 66.5899C89.1218 66.5899 88.4814 65.9495 88.4753 65.1589L88.2715 1.48065C88.2654 0.685498 88.9058 0.0450688 89.7025 0.0389404H89.7086C90.4976 0.0389404 91.1442 0.679337 91.1442 1.47602L91.3541 65.1467C91.3603 65.9434 90.7136 66.5899 89.917 66.5899Z" fill="#313131"/>
<path d="M144.252 75.0165C144.072 75.0165 143.893 74.9798 143.718 74.9139L125.657 67.661C124.975 67.4694 124.233 67.4388 123.521 67.5706C120.086 68.211 111.719 69.0674 108.229 63.2026C107.218 61.4897 104.998 60.6041 102.197 59.4857C99.9344 58.5757 97.3681 57.5522 94.7221 55.8286C89.9941 52.7522 88.7853 50.0542 88.6658 49.7539C88.367 49.0185 88.7133 48.1743 89.4502 47.8755C90.1795 47.5752 91.0114 47.9169 91.3224 48.6416C91.3592 48.7182 92.3826 50.8677 96.2895 53.4171C98.7025 54.9906 101.126 55.9542 103.262 56.8107C106.446 58.0854 109.193 59.1808 110.702 61.7302C111.557 63.1658 114.46 66.3327 122.994 64.7454C124.174 64.5187 125.399 64.5845 126.538 64.92C126.579 64.9308 126.62 64.9492 126.663 64.9675L144.791 72.2389C145.526 72.5376 145.886 73.3757 145.586 74.1126C145.365 74.6749 144.82 75.0165 144.252 75.0165Z" fill="#313131"/>
<path d="M13.4818 100.601H1.93132C1.14076 100.601 0.494141 99.9604 0.494141 99.1638C0.494141 98.3686 1.14076 97.7282 1.93132 97.7282H12.0385V90.1995H10.1295C9.33431 90.1995 8.69397 89.5529 8.69397 88.7563C8.69397 87.9611 9.33431 87.3207 10.1295 87.3207H24.5894V84.2795C24.5894 83.6222 25.0321 83.0477 25.6726 82.8853L43.1599 78.4024C43.5904 78.289 44.0454 78.3917 44.3978 78.6598C44.7517 78.9294 44.9555 79.3553 44.9555 79.7981V93.3893H50.9996V86.8181C50.9996 86.0215 51.64 85.3749 52.4352 85.3749H65.1469C65.9436 85.3749 66.584 86.0215 66.584 86.8181C66.584 87.6072 65.9436 88.2537 65.1469 88.2537H53.8722V94.8249C53.8722 95.6216 53.2318 96.2681 52.4352 96.2681H43.5122C42.7232 96.2681 42.0767 95.6216 42.0767 94.8249V81.6535L27.4682 85.3933V88.7563C27.4682 89.5529 26.8216 90.1995 26.0249 90.1995H14.9172V99.1638C14.9172 99.9604 14.2769 100.601 13.4818 100.601Z" fill="#313131"/>
<path d="M113.307 82.8072C112.535 82.8072 111.894 82.1913 111.87 81.413C111.847 80.6179 112.469 79.9529 113.259 79.9299C117.347 79.8028 121.596 79.6128 124.631 78.8039C125.133 78.6599 137.833 74.992 140.825 74.0636C141.836 73.7464 142.919 72.8257 144.182 71.7655C146.156 70.097 148.611 68.0195 152.279 66.9669C156.906 65.6263 158.467 64.4528 160.275 63.0877C160.622 62.8242 160.987 62.556 161.376 62.2741C162.34 61.5862 163.129 60.9519 163.829 60.3958C164.918 59.5332 165.775 58.8453 166.72 58.3842C168.349 57.5829 171.706 58.8269 174.237 60.0127C174.955 60.3467 175.266 61.2032 174.932 61.9217C174.597 62.6449 173.74 62.9498 173.017 62.6158C170.946 61.646 168.594 60.9044 167.929 60.9933C167.282 61.3227 166.547 61.9095 165.619 62.651C164.895 63.2256 164.076 63.8782 163.052 64.6136C162.686 64.871 162.34 65.1346 162.004 65.3858C160.054 66.8582 158.216 68.2478 153.075 69.7308C149.999 70.6164 147.892 72.3951 146.037 73.9625C144.601 75.1774 143.249 76.3204 141.68 76.8106C138.611 77.7621 125.947 81.4191 125.413 81.5754C125.401 81.5754 125.391 81.5815 125.384 81.5877C122.051 82.4671 117.79 82.6709 113.354 82.8072C113.336 82.8072 113.319 82.8072 113.307 82.8072Z" fill="#313131"/>
<path d="M131.267 68.7563C130.926 68.7563 130.584 68.6307 130.31 68.384C129.723 67.8585 129.67 66.9607 130.189 66.3678C130.298 66.2482 132.901 63.3633 140.668 59.9222C144.636 58.168 147.264 56.475 149.377 55.1161C151.31 53.8781 152.698 52.9803 154.183 52.6632C154.954 52.4947 155.619 52.3936 156.211 52.3093C157.653 52.0948 158.45 51.9799 159.43 51.1188C160.071 50.5566 160.293 49.9759 160.532 49.3585C160.831 48.5878 161.238 47.5276 162.507 47.1032C163.769 46.6773 166.362 47.5751 170.198 49.7783C170.892 50.1735 171.125 51.0468 170.73 51.7409C170.336 52.4288 169.461 52.6693 168.767 52.274C166.648 51.0591 164.267 49.9928 163.435 49.8671C163.369 49.9989 163.285 50.221 163.213 50.3942C162.933 51.1372 162.501 52.2495 161.329 53.2791C159.712 54.7039 158.215 54.9184 156.63 55.1528C156.055 55.2356 155.468 55.326 154.793 55.4761C153.817 55.6845 152.608 56.4628 150.933 57.5398C148.856 58.8743 146.002 60.7128 141.836 62.5559C134.738 65.6967 132.361 68.2522 132.338 68.2829C132.057 68.5939 131.661 68.7563 131.267 68.7563Z" fill="#313131"/>
<path d="M144.396 60.3528C143.599 60.3528 142.959 59.7062 142.959 58.9172C142.959 49 134.892 40.9381 124.981 40.9381C115.064 40.9381 107.004 49 107.004 58.9172C107.004 59.7062 106.357 60.3528 105.56 60.3528C104.771 60.3528 104.125 59.7062 104.125 58.9172C104.125 47.4142 113.478 38.0593 124.981 38.0593C136.478 38.0593 145.832 47.4142 145.832 58.9172C145.832 59.7062 145.191 60.3528 144.396 60.3528Z" fill="#313131"/>
<path d="M107.094 87.0388C106.801 87.0388 106.507 86.9499 106.256 86.763L89.6662 74.7637L73.1672 86.763C72.5206 87.2303 71.6229 87.0863 71.1556 86.4459C70.6883 85.8054 70.8322 84.903 71.4727 84.4357L88.8175 71.8251C89.3201 71.4605 90.0018 71.4605 90.5043 71.8251L107.938 84.4357C108.585 84.903 108.729 85.8008 108.261 86.4412C107.979 86.8289 107.543 87.0388 107.094 87.0388Z" fill="#313131"/>
<path d="M103.354 104.771H93.5023C92.7071 104.771 92.0606 104.131 92.0606 103.336V94.1185C92.0606 92.9342 91.0969 91.9644 89.9049 91.9644C88.7145 91.9644 87.7447 92.9342 87.7447 94.1185V103.336C87.7447 104.131 87.1043 104.771 86.3091 104.771H76.5543C75.7576 104.771 75.1172 104.131 75.1172 103.336V87.5244C75.1172 86.7277 75.7576 86.0812 76.5543 86.0812C77.3494 86.0812 77.9959 86.7277 77.9959 87.5244V101.892H84.872V94.1185C84.872 91.3485 87.1287 89.0856 89.9049 89.0856C92.6826 89.0856 94.9394 91.3485 94.9394 94.1185V101.892H101.917V87.5244C101.917 86.7277 102.557 86.0812 103.354 86.0812C104.149 86.0812 104.789 86.7277 104.789 87.5244V103.336C104.789 104.131 104.149 104.771 103.354 104.771Z" fill="#313131"/>
<path d="M115.766 112.557C115.246 112.557 114.748 112.648 114.289 112.864C112.308 113.778 111.464 116.723 111.218 118.267C112.846 115.743 116.113 114.161 118.628 113.276C117.664 112.845 116.682 112.557 115.766 112.557ZM111.499 161.142C110.877 161.142 110.302 160.736 110.117 160.112C109.944 159.527 106.107 146.479 106.873 135.281C106.657 135.271 106.437 135.234 106.215 135.174C105.999 135.108 105.753 135.013 105.508 134.857C103.97 136.688 101.69 139.07 100.08 139.358C99.6496 139.435 99.213 139.315 98.8836 139.029C98.5542 138.741 98.3749 138.323 98.3872 137.892C98.404 137.472 98.7702 129.219 103.684 123.618C101.756 124.377 99.3616 126.132 97.1003 130.04C96.7954 130.559 96.2024 130.835 95.6156 130.734C95.0227 130.638 94.5569 130.176 94.442 129.591C94.3884 129.303 93.198 122.75 97.9551 117.891L97.304 115.574C97.1784 115.113 97.2856 114.623 97.5904 114.258C97.8953 113.892 98.3626 113.706 98.8299 113.749C98.9372 113.762 101.402 114.007 104.054 114.569C106.256 115.036 107.753 115.551 108.782 116.047C109.351 114.066 110.56 111.421 113.068 110.255C115.76 109.003 119.136 109.775 123.092 112.557C123.57 112.887 123.798 113.467 123.677 114.03C123.558 114.598 123.109 115.036 122.547 115.144C121.391 115.37 119.1 116.011 117.059 117.059C117.448 117.022 117.849 116.993 118.261 116.974C122.87 116.807 126.21 118.381 127.981 121.535C130.835 121.96 135.036 123.636 135.808 127.676C142.046 127.429 142.554 127.724 142.901 127.921C143.349 128.179 143.631 128.657 143.631 129.171V131.194C144.463 132.458 146.887 136.455 146.522 139.95C146.463 140.53 146.061 141.01 145.505 141.177C144.947 141.344 144.35 141.165 143.978 140.716C143.955 140.687 142.56 139.017 140.507 137.431C142.058 139.77 143.428 142.787 143.625 146.306C143.656 146.79 143.44 147.252 143.051 147.544C142.662 147.832 142.153 147.904 141.704 147.742C141.333 147.61 138.903 146.689 137.27 145.048C136.809 145.54 136.247 145.929 135.582 146.018C135.623 149.173 135.563 153.984 134.894 156.479C134.684 157.245 133.893 157.7 133.127 157.492C132.361 157.282 131.908 156.492 132.116 155.726C132.876 152.907 132.738 145.666 132.619 143.116C132.59 142.398 133.092 141.764 133.798 141.632C134.505 141.5 135.199 141.914 135.425 142.596C135.432 142.631 135.444 142.661 135.456 142.691C135.629 142.429 135.815 142.093 135.94 141.793C136.191 141.218 136.772 140.866 137.396 140.926C138.018 140.979 138.533 141.428 138.67 142.033C138.802 142.631 139.49 143.277 140.328 143.833C138.807 138.172 133.936 134.402 133.883 134.361C133.362 133.965 133.176 133.271 133.421 132.672C133.667 132.069 134.283 131.708 134.929 131.787C137.921 132.151 140.687 133.87 142.734 135.522C142.147 134.198 141.434 133.043 141.022 132.481C140.848 132.236 140.753 131.937 140.753 131.638V130.471C139.334 130.446 136.772 130.506 134.558 130.608C134.157 130.625 133.774 130.477 133.487 130.201C133.206 129.919 133.051 129.536 133.057 129.142C133.146 124.839 127.19 124.33 126.939 124.312C126.414 124.27 125.953 123.947 125.737 123.467C122.936 117.256 112.72 120.913 112.613 120.949C112.061 121.146 111.445 120.996 111.05 120.559C110.835 120.314 110.71 120.016 110.685 119.703C110.494 119.872 110.249 119.997 109.979 120.045C109.345 120.164 108.71 119.841 108.429 119.26C108.422 119.25 107.866 118.315 103.42 117.376C102.432 117.172 101.468 117.005 100.661 116.892L100.96 117.95C101.11 118.477 100.943 119.046 100.529 119.41C98.7212 121.014 97.8479 122.942 97.4526 124.647C102.78 118.782 108.19 120.392 108.459 120.481C108.997 120.65 109.386 121.128 109.452 121.69C109.512 122.254 109.237 122.804 108.752 123.09C105.15 125.209 103.311 129.087 102.403 131.972C102.086 132.979 101.857 133.936 101.69 134.779C102.535 133.918 103.492 132.822 104.365 131.704C104.683 131.29 105.197 131.08 105.712 131.158C106.227 131.237 106.663 131.589 106.843 132.075C106.921 132.266 106.987 132.367 107.022 132.404C107.16 132.398 107.465 132.277 107.652 132.141C108.111 131.793 108.735 131.758 109.237 132.044C109.74 132.338 110.01 132.9 109.938 133.481C108.525 144.48 112.833 159.144 112.876 159.292C113.103 160.052 112.672 160.855 111.906 161.082C111.768 161.119 111.631 161.142 111.499 161.142Z" fill="#313131"/>
<path d="M128.16 161.508C128.058 161.508 127.956 161.495 127.855 161.477C127.076 161.31 126.586 160.544 126.747 159.766C127.698 155.373 129.07 148.495 129.548 144.929C129.123 144.966 128.687 144.923 128.268 144.756C125.497 148.293 124.826 148.544 124.521 148.658C124.103 148.813 123.635 148.765 123.258 148.532C122.875 148.293 122.63 147.892 122.589 147.449C122.558 147.161 122.091 141.704 125.526 136.628C123.491 137.478 121.368 138.944 120.619 141.446C120.427 142.087 119.817 142.511 119.152 142.464C118.483 142.422 117.931 141.924 117.824 141.267C117.8 141.141 117.357 138.417 117.705 135.981L116.226 134.313C115.874 134.564 115.454 134.756 114.957 134.809C115.071 136.796 115.287 139.848 115.67 143.067C116.801 152.488 118.411 155.558 119.272 156.551C119.793 157.15 119.733 158.06 119.136 158.58C118.53 159.101 117.62 159.035 117.099 158.437C112.731 153.404 112.037 134.702 111.978 132.589C111.953 131.96 112.348 131.391 112.941 131.183C113.533 130.979 114.191 131.177 114.562 131.685C114.616 131.751 114.659 131.799 114.694 131.84C114.778 131.745 114.873 131.613 114.933 131.494C115.143 131.063 115.557 130.775 116.028 130.709C116.502 130.644 116.974 130.829 117.291 131.189L120.32 134.593C120.625 134.935 120.744 135.407 120.649 135.856C120.608 136.024 120.577 136.204 120.553 136.383C121.667 135.353 123.067 134.498 124.725 133.839C127.315 132.816 129.644 132.631 129.739 132.625C130.369 132.571 130.96 132.942 131.189 133.528C131.421 134.115 131.242 134.785 130.746 135.18C127.628 137.664 126.316 140.806 125.783 143.254C126.197 142.733 126.621 142.188 127.01 141.673C127.352 141.224 127.921 141.016 128.471 141.141C128.95 141.249 129.333 141.584 129.5 142.033C129.757 141.961 130.122 141.805 130.392 141.638C130.828 141.368 131.374 141.35 131.823 141.59C132.278 141.823 132.57 142.284 132.595 142.793C132.727 145.606 129.883 158.868 129.56 160.375C129.417 161.046 128.824 161.508 128.16 161.508Z" fill="#313131"/>
<path d="M131.267 130.674C131.206 130.823 131.075 130.685 130.997 130.644C130.178 130.279 129.356 129.89 128.442 129.818C128.405 129.711 128.543 129.602 128.543 129.567V127.604C129.764 128.166 130.812 129.393 131.267 130.674Z" fill="#313131"/>
<path d="M124.911 129.871L121.991 130.925C121.739 130.236 121.488 129.531 121.165 128.872C121.002 128.549 120.411 127.4 120.219 127.203C120.028 126.436 116.274 122.983 115.73 122.355C119.573 123.66 122.697 126.538 124.911 129.871Z" fill="#313131"/>
<path d="M145.037 157.814C144.677 156.535 143.254 154.984 142.523 154.661C141.411 154.171 139.926 154.416 139.255 155.433C137.7 153.973 137.484 153.817 136.102 153.032C134.247 151.98 131.823 152.614 130.727 154.445C129.776 156.037 129.488 157.958 128.555 159.562C127.321 157.534 125.167 156.086 122.822 155.703C120.476 155.32 117.98 156.014 116.16 157.546C115.699 157.935 115.25 158.395 114.659 158.533C114.21 158.635 113.743 158.533 113.288 158.51C110.876 158.384 108.662 160.759 108.955 163.153C107.884 161.411 107.907 158.969 106.286 157.725C104.293 156.187 102.102 153.847 100.469 155.308C99.9905 155.732 96.4529 161.382 97.5774 161.627C96.3456 161.358 94.9561 161.261 93.8561 160.664C94.5256 159.227 96.243 158.617 96.6199 156.978C96.7991 156.211 96.5479 155.403 96.0163 154.822C93.2263 151.817 85.6318 155.361 82.6044 156.307C83.6631 153.673 84.2682 150.855 84.3754 148.018C84.3815 147.707 84.3403 147.39 84.2085 147.102C83.6876 145.947 82.4251 146.156 81.4614 146.521C77.7093 147.946 74.5838 150.932 72.992 154.614C71.3649 152.668 69.4973 150.699 67.0383 150.118C64.5716 149.538 61.4784 151.051 61.3589 153.584C60.5086 152.853 60.1608 151.716 59.8743 150.639C59.5694 149.46 59.2522 148.216 58.3115 147.408C57.7799 146.953 57.0674 146.731 56.3857 146.887C55.4158 147.102 55.1707 147.868 54.9424 148.599C53.919 151.889 52.9017 155.188 51.8782 158.479C50.2328 155.798 48.3591 152.925 45.3914 151.889C43.5054 151.232 41.4294 151.418 39.4546 151.704C35.4681 152.291 31.549 153.255 27.6406 154.247C27.993 154.159 30.4764 155.678 31.195 155.773C32.6015 155.965 33.8226 155.642 35.1509 155.248C37.9761 154.404 41.267 152.841 44.1887 154.182C46.2769 155.139 47.4444 157.336 48.6349 159.293C49.4959 160.705 50.5913 162.153 51.9917 162.925C52.6857 163.314 53.5605 162.968 53.8408 162.219C54.1534 161.387 54.8704 160.592 55.2366 159.741C55.8525 158.294 55.3974 156.63 54.9302 155.122L58.5628 161.891C58.6241 162.004 58.7971 161.945 58.7726 161.819L56.8637 149.585C58.0786 152.674 59.5801 157.109 60.7062 159.898C60.9038 160.382 61.6162 160.281 61.6637 159.754C62.0406 155.577 65.3439 149.98 69.2108 153.399C71.1137 155.079 70.8747 158.706 72.1724 160.532C72.6642 161.232 73.7581 160.921 73.8485 160.071C74.3694 155.013 77.9422 150.334 82.7545 148.628C80.916 152.326 79.5815 156.277 78.7971 160.328C78.7205 160.73 79.1632 161.022 79.5034 160.808C83.8668 158.012 89.0437 156.51 94.2207 156.546L89.845 160.868C89.2766 161.43 89.5769 162.387 90.3598 162.536C93.2815 163.094 96.1711 163.823 99.0024 164.721C99.8037 164.978 100.629 164.338 100.564 163.5C100.39 161.286 101.204 158.467 102.468 157.814C102.707 157.688 103.946 159.138 104.208 159.204C104.562 159.293 104.783 160.077 104.927 160.413L107.859 167.198C108.201 167.983 109.326 167.947 109.608 167.145L109.883 166.378C110.254 166.876 111.032 166.66 111.103 166.049C111.379 163.559 112.367 159.861 113.718 161.251C114 161.543 114.162 161.938 114.204 162.346C114.317 163.5 114.43 164.655 114.545 165.81C114.605 166.428 115.472 166.493 115.629 165.894C116.185 163.751 116.932 161.663 117.842 159.653L118.86 163.65C119.105 162.256 119.375 160.808 120.236 159.682C121.098 158.557 122.744 157.898 123.971 158.605C124.599 158.963 125.017 159.61 125.413 160.203C125.88 160.903 126.275 161.644 126.681 162.375C127.358 163.596 129.117 163.631 129.83 162.41L133.977 155.283C134.91 157.462 136.048 158.143 136.928 159.329C137.628 160.262 139.004 160.304 139.728 159.395C140.285 158.701 140.902 158.067 141.578 157.492C141.715 158.658 142.786 159.772 143.942 159.556C145.055 159.346 145.264 158.635 145.037 157.814Z" fill="#313131"/>
</svg>
