<svg width="25" height="24" viewBox="0 0 25 24" fill="none" xmlns="http://www.w3.org/2000/svg">
<path d="M24.1939 11.7193C23.4346 11.7836 22.6778 11.8256 21.9185 11.8652C21.5401 11.8825 21.1617 11.8949 20.7808 11.9048C20.5903 11.9097 20.4024 11.9147 20.2119 11.927L19.9745 11.9394L19.1608 11.927C15.5399 11.8751 12.619 8.95416 12.567 5.33329L12.5571 4.59626C12.5571 4.59626 12.5571 4.57895 12.5571 4.57153L12.572 4.2871C12.5819 4.09666 12.5868 3.90869 12.5942 3.71825C12.6041 3.33984 12.6165 2.95895 12.6338 2.58054C12.6734 1.82125 12.7154 1.06443 12.7822 0.305132C12.7822 0.290292 12.7822 0.272979 12.7822 0.25814C12.7698 0.102324 12.6338 -0.0114469 12.478 0.000919447C12.3222 0.0132858 12.2084 0.149316 12.2208 0.305132C12.2851 1.06443 12.3271 1.82125 12.3667 2.58054C12.384 2.95895 12.3964 3.33984 12.4063 3.71825C12.4112 3.90869 12.4162 4.09666 12.4285 4.2871L12.436 4.45034L12.4236 5.33329C12.3716 8.95416 9.45072 11.8751 5.82984 11.927L5.02108 11.9394L4.78612 11.927C4.59568 11.9171 4.40771 11.9122 4.21727 11.9048C3.83886 11.8949 3.46045 11.8825 3.07957 11.8652C2.32027 11.8256 1.56345 11.7836 0.804155 11.7193C0.789316 11.7193 0.772003 11.7193 0.757163 11.7193C0.601347 11.7317 0.487577 11.8677 0.499943 12.0235C0.512309 12.1793 0.648339 12.2931 0.804155 12.2807C1.56345 12.2164 2.32027 12.1744 3.07957 12.1348C3.45798 12.1175 3.83886 12.1051 4.21727 12.0952C4.40771 12.0903 4.59568 12.0853 4.78612 12.073L5.02108 12.0606L5.82984 12.073C9.45072 12.1249 12.3716 15.0458 12.4236 18.6667L12.436 19.5497L12.4285 19.7129C12.4186 19.9033 12.4137 20.0913 12.4063 20.2818C12.3964 20.6602 12.384 21.041 12.3667 21.4195C12.3271 22.1788 12.2851 22.9356 12.2208 23.6949C12.2208 23.7097 12.2208 23.727 12.2208 23.7419C12.2331 23.8977 12.3692 24.0114 12.525 23.9991C12.6808 23.9867 12.7946 23.8507 12.7822 23.6949C12.7179 22.9356 12.6759 22.1788 12.6338 21.4195C12.6165 21.041 12.6041 20.6602 12.5942 20.2818C12.5893 20.0913 12.5819 19.9033 12.572 19.7129L12.5571 19.4285C12.5571 19.4285 12.5571 19.4112 12.5571 19.4037L12.567 18.6667C12.619 15.0458 15.5399 12.1249 19.1608 12.073L19.977 12.0606L20.2144 12.073C20.4048 12.0829 20.5928 12.0878 20.7832 12.0952C21.1617 12.1076 21.5425 12.1175 21.921 12.1348C22.6802 12.1744 23.4371 12.2164 24.1964 12.2807C24.2112 12.2807 24.2285 12.2807 24.2434 12.2807C24.3992 12.2684 24.5129 12.1323 24.5006 11.9765C24.4882 11.8232 24.3522 11.7069 24.1964 11.7193" fill="#FC5B67"/>
</svg>
