<svg width="18" height="29" viewBox="0 0 18 29" fill="none" xmlns="http://www.w3.org/2000/svg">
<g clip-path="url(#clip0_1302_7043)">
<path d="M15.9498 0.387947C16.5155 0.387947 17.0811 0.62327 17.4846 1.08253C18.2313 1.93651 18.1521 3.23458 17.3036 3.98988L0.405683 14.7957L17.2508 24.7361C18.1257 25.4572 18.2501 26.7553 17.5299 27.6321C16.8134 28.5126 15.5237 28.6379 14.6526 27.9129L0.745074 16.386C0.28124 16.0026 0.0097267 15.4333 -0.00158764 14.8336C-0.0129001 14.2301 0.239757 13.6532 0.688508 13.2547L14.5998 0.900339C14.9882 0.554949 15.4709 0.384153 15.9536 0.384153L15.9498 0.387947Z" fill="#FC5B67"/>
</g>
<defs>
<clipPath id="clip0_1302_7043">
<rect width="18" height="27.4217" fill="white" transform="translate(18 28.2108) rotate(-180)"/>
</clipPath>
</defs>
</svg>
