<svg width="18" height="29" viewBox="0 0 18 29" fill="none" xmlns="http://www.w3.org/2000/svg">
<g clip-path="url(#clip0_1302_7046)">
<path d="M2.0463 28.3804C1.48064 28.3804 0.914992 28.145 0.511494 27.6858C-0.235167 26.8318 -0.155976 25.5337 0.692502 24.7784L17.5904 13.9726L0.745296 4.03222C-0.129579 3.31108 -0.254022 2.01302 0.466241 1.13626C1.18273 0.255701 2.47242 0.130449 3.34352 0.85539L17.251 12.3823C17.7149 12.7657 17.9864 13.335 17.9977 13.9347C18.009 14.5382 17.7563 15.1151 17.3076 15.5136L3.39632 27.868C3.0079 28.2134 2.52521 28.3842 2.04253 28.3842L2.0463 28.3804Z" fill="#FC5B67"/>
</g>
<defs>
<clipPath id="clip0_1302_7046">
<rect width="18" height="28" fill="white" transform="translate(0 0.5)"/>
</clipPath>
</defs>
</svg>
