<svg width="140" height="140" viewBox="0 0 140 140" fill="none" xmlns="http://www.w3.org/2000/svg">
<g clip-path="url(#clip0_1387_6663)">
<mask id="mask0_1387_6663" style="mask-type:luminance" maskUnits="userSpaceOnUse" x="0" y="0" width="140" height="140">
<path d="M69.4318 0.608789C66.0695 0.913197 63.5927 3.90193 63.9109 7.26426L69.5702 68.3949L43.903 12.6191C42.4917 9.54732 38.8665 8.20515 35.7947 9.6165C35.6287 9.69952 35.4626 9.78254 35.2966 9.8794C32.377 11.5675 31.367 15.3034 33.055 18.2368L33.1519 18.4028C33.2211 18.5135 33.2903 18.6104 33.3594 18.7211L68.8368 68.8377L18.7064 33.3603C15.9528 31.4093 12.1339 32.0597 10.1829 34.827C10.0722 34.9792 9.97538 35.1314 9.87852 35.2975C8.19044 38.217 9.18669 41.9668 12.1201 43.6549L12.2861 43.7517C12.3968 43.8071 12.5075 43.8624 12.6182 43.9177L68.394 69.5849L7.24954 63.9257C3.88722 63.6074 0.912324 66.0842 0.59408 69.4465C0.580243 69.6264 0.566406 69.8201 0.566406 70.0138C0.566406 73.39 3.30608 76.1297 6.68224 76.1297H6.87595C7.00048 76.1297 7.12501 76.1297 7.24954 76.102L68.394 70.4428L12.6182 96.1099C9.54644 97.5212 8.20428 101.146 9.61563 104.218C9.69865 104.384 9.78167 104.55 9.87852 104.716C11.5666 107.636 15.3025 108.646 18.2359 106.958L18.4019 106.861C18.5126 106.792 18.6095 106.723 18.7064 106.653L68.823 71.1761L33.3456 121.293C31.3946 124.046 32.045 127.865 34.7985 129.816C34.9507 129.927 35.1167 130.024 35.2689 130.121C38.1885 131.809 41.9244 130.812 43.6263 127.879L43.7232 127.713C43.7785 127.602 43.8338 127.492 43.8892 127.381L69.5563 71.605L63.8971 132.75C63.5927 136.112 66.0556 139.087 69.418 139.405C69.6117 139.419 69.7915 139.433 69.9853 139.433C73.3614 139.433 76.1011 136.693 76.1011 133.317V133.123C76.1011 132.999 76.0873 132.874 76.0734 132.75L70.4142 71.605L96.0813 127.381C96.1643 127.547 96.2474 127.713 96.3442 127.879C98.0323 130.799 101.768 131.809 104.702 130.121C104.868 130.024 105.02 129.927 105.172 129.816C107.926 127.865 108.576 124.046 106.625 121.293L71.1475 71.1761L121.264 106.653C121.416 106.764 121.569 106.861 121.735 106.958C124.654 108.646 128.404 107.65 130.092 104.716C130.189 104.55 130.272 104.384 130.355 104.218C131.766 101.146 130.424 97.5212 127.352 96.1099L71.5765 70.4428L132.721 76.102C132.915 76.1158 133.095 76.1297 133.288 76.1297C136.664 76.1297 139.404 73.39 139.404 70.0138C139.404 69.8201 139.404 69.6402 139.376 69.4465C139.072 66.0842 136.083 63.6074 132.721 63.9257L71.5765 69.5849L127.352 43.9177C127.518 43.8347 127.684 43.7517 127.85 43.6549C130.77 41.9668 131.78 38.2309 130.092 35.2975C129.995 35.1314 129.898 34.9792 129.788 34.827C127.837 32.0735 124.018 31.4232 121.264 33.3603L71.1475 68.8377L106.625 18.7211C106.736 18.5689 106.832 18.4028 106.929 18.2506C108.617 15.3311 107.621 11.5813 104.688 9.89323C104.522 9.79638 104.356 9.71336 104.19 9.63034C101.118 8.21899 97.4927 9.56115 96.0813 12.6329L70.4142 68.4088L76.0734 7.26426C76.0873 7.08438 76.1011 6.89066 76.1011 6.69695C76.1011 3.32079 73.3614 0.581116 69.9853 0.581116C69.7915 0.581116 69.6117 0.581116 69.418 0.608789" fill="white"/>
</mask>
<g mask="url(#mask0_1387_6663)">
<path d="M140 0H0V140H140V0Z" fill="#FFDA7F"/>
</g>
</g>
<defs>
<clipPath id="clip0_1387_6663">
<rect width="140" height="140" fill="white"/>
</clipPath>
</defs>
</svg>
